<mxfile host="65bd71144e">
    <diagram id="vzlyOB8IjOIarAb81qoN" name="Use Case Diagram">
        <mxGraphModel dx="1080" dy="575" grid="1" gridSize="10" guides="1" tooltips="1" connect="1" arrows="1" fold="1" page="1" pageScale="1" pageWidth="850" pageHeight="1100" math="0" shadow="0">
            <root>
                <mxCell id="HqIOuUhi2kU-NIX-ghaw-0"/>
                <mxCell id="HqIOuUhi2kU-NIX-ghaw-1" parent="HqIOuUhi2kU-NIX-ghaw-0"/>
                <mxCell id="HqIOuUhi2kU-NIX-ghaw-2" value="" style="html=1;fillColor=#FFFFFF;strokeColor=#000000;fontColor=#0D0E12;" parent="HqIOuUhi2kU-NIX-ghaw-1" vertex="1">
                    <mxGeometry x="240" y="50" width="640" height="1000" as="geometry"/>
                </mxCell>
                <mxCell id="HqIOuUhi2kU-NIX-ghaw-10" style="edgeStyle=orthogonalEdgeStyle;rounded=0;orthogonalLoop=1;jettySize=auto;html=1;entryX=0;entryY=0.5;entryDx=0;entryDy=0;strokeColor=#000000;fontColor=#0D0E12;" parent="HqIOuUhi2kU-NIX-ghaw-1" source="HqIOuUhi2kU-NIX-ghaw-3" target="0Y3vDBZV-FA1QUZxAho4-3" edge="1">
                    <mxGeometry relative="1" as="geometry">
                        <Array as="points">
                            <mxPoint x="210" y="590"/>
                            <mxPoint x="210" y="330"/>
                        </Array>
                    </mxGeometry>
                </mxCell>
                <mxCell id="HqIOuUhi2kU-NIX-ghaw-11" style="edgeStyle=orthogonalEdgeStyle;rounded=0;orthogonalLoop=1;jettySize=auto;html=1;entryX=0;entryY=0.5;entryDx=0;entryDy=0;strokeColor=#000000;fontColor=#0D0E12;" parent="HqIOuUhi2kU-NIX-ghaw-1" source="HqIOuUhi2kU-NIX-ghaw-3" target="0Y3vDBZV-FA1QUZxAho4-1" edge="1">
                    <mxGeometry relative="1" as="geometry">
                        <Array as="points">
                            <mxPoint x="210" y="590"/>
                            <mxPoint x="210" y="460"/>
                        </Array>
                    </mxGeometry>
                </mxCell>
                <mxCell id="HqIOuUhi2kU-NIX-ghaw-12" style="edgeStyle=orthogonalEdgeStyle;rounded=0;orthogonalLoop=1;jettySize=auto;html=1;entryX=0;entryY=0.5;entryDx=0;entryDy=0;strokeColor=#000000;fontColor=#0D0E12;" parent="HqIOuUhi2kU-NIX-ghaw-1" source="HqIOuUhi2kU-NIX-ghaw-3" target="0Y3vDBZV-FA1QUZxAho4-0" edge="1">
                    <mxGeometry relative="1" as="geometry">
                        <Array as="points">
                            <mxPoint x="210" y="590"/>
                            <mxPoint x="210" y="560"/>
                        </Array>
                    </mxGeometry>
                </mxCell>
                <mxCell id="HqIOuUhi2kU-NIX-ghaw-13" style="edgeStyle=orthogonalEdgeStyle;rounded=0;orthogonalLoop=1;jettySize=auto;html=1;entryX=0;entryY=0.5;entryDx=0;entryDy=0;strokeColor=#000000;fontColor=#0D0E12;" parent="HqIOuUhi2kU-NIX-ghaw-1" source="HqIOuUhi2kU-NIX-ghaw-3" target="0Y3vDBZV-FA1QUZxAho4-4" edge="1">
                    <mxGeometry relative="1" as="geometry">
                        <Array as="points">
                            <mxPoint x="210" y="590"/>
                            <mxPoint x="210" y="670"/>
                        </Array>
                    </mxGeometry>
                </mxCell>
                <mxCell id="5A-oOUaq3Q1xKJLpsagU-17" style="edgeStyle=orthogonalEdgeStyle;rounded=0;orthogonalLoop=1;jettySize=auto;html=1;entryX=0;entryY=0.5;entryDx=0;entryDy=0;strokeColor=#000000;fontColor=#0D0E12;" parent="HqIOuUhi2kU-NIX-ghaw-1" source="HqIOuUhi2kU-NIX-ghaw-3" target="5A-oOUaq3Q1xKJLpsagU-8" edge="1">
                    <mxGeometry relative="1" as="geometry">
                        <Array as="points">
                            <mxPoint x="210" y="590"/>
                            <mxPoint x="210" y="770"/>
                        </Array>
                    </mxGeometry>
                </mxCell>
                <mxCell id="5A-oOUaq3Q1xKJLpsagU-18" style="edgeStyle=orthogonalEdgeStyle;rounded=0;orthogonalLoop=1;jettySize=auto;html=1;entryX=0;entryY=0.5;entryDx=0;entryDy=0;strokeColor=#000000;fontColor=#0D0E12;" parent="HqIOuUhi2kU-NIX-ghaw-1" source="HqIOuUhi2kU-NIX-ghaw-3" target="5A-oOUaq3Q1xKJLpsagU-9" edge="1">
                    <mxGeometry relative="1" as="geometry">
                        <Array as="points">
                            <mxPoint x="210" y="590"/>
                            <mxPoint x="210" y="890"/>
                        </Array>
                    </mxGeometry>
                </mxCell>
                <mxCell id="HqIOuUhi2kU-NIX-ghaw-3" value="Checked In Customer" style="shape=umlActor;verticalLabelPosition=bottom;verticalAlign=top;html=1;strokeColor=#000000;fontColor=#0D0E12;" parent="HqIOuUhi2kU-NIX-ghaw-1" vertex="1">
                    <mxGeometry x="100" y="560" width="30" height="60" as="geometry"/>
                </mxCell>
                <mxCell id="HqIOuUhi2kU-NIX-ghaw-4" value="Check In" style="ellipse;whiteSpace=wrap;html=1;strokeColor=#000000;fontColor=#0D0E12;fillColor=none;" parent="HqIOuUhi2kU-NIX-ghaw-1" vertex="1">
                    <mxGeometry x="300" y="160" width="120" height="60" as="geometry"/>
                </mxCell>
                <mxCell id="0Y3vDBZV-FA1QUZxAho4-0" value="Call Waiter" style="ellipse;whiteSpace=wrap;html=1;strokeColor=#000000;fontColor=#0D0E12;fillColor=none;" parent="HqIOuUhi2kU-NIX-ghaw-1" vertex="1">
                    <mxGeometry x="300" y="530" width="120" height="60" as="geometry"/>
                </mxCell>
                <mxCell id="0Y3vDBZV-FA1QUZxAho4-1" value="View Order History" style="ellipse;whiteSpace=wrap;html=1;strokeColor=#000000;fontColor=#0D0E12;fillColor=none;" parent="HqIOuUhi2kU-NIX-ghaw-1" vertex="1">
                    <mxGeometry x="300" y="430" width="120" height="60" as="geometry"/>
                </mxCell>
                <mxCell id="0Y3vDBZV-FA1QUZxAho4-3" value="View Menu" style="ellipse;whiteSpace=wrap;html=1;strokeColor=#000000;fontColor=#0D0E12;fillColor=none;" parent="HqIOuUhi2kU-NIX-ghaw-1" vertex="1">
                    <mxGeometry x="300" y="300" width="120" height="60" as="geometry"/>
                </mxCell>
                <mxCell id="0Y3vDBZV-FA1QUZxAho4-4" value="Check Out" style="ellipse;whiteSpace=wrap;html=1;strokeColor=#000000;fontColor=#0D0E12;fillColor=none;" parent="HqIOuUhi2kU-NIX-ghaw-1" vertex="1">
                    <mxGeometry x="300" y="640" width="120" height="60" as="geometry"/>
                </mxCell>
                <mxCell id="5A-oOUaq3Q1xKJLpsagU-7" value="&amp;lt;&amp;lt;extend&amp;gt;&amp;gt;" style="rounded=0;orthogonalLoop=1;jettySize=auto;html=1;dashed=1;exitX=0;exitY=0.5;exitDx=0;exitDy=0;strokeColor=#000000;fontColor=#0D0E12;labelBackgroundColor=none;" parent="HqIOuUhi2kU-NIX-ghaw-1" source="2KqFXeakOvfAGIVKfcWQ-0" edge="1">
                    <mxGeometry x="0.0336" y="-14" relative="1" as="geometry">
                        <mxPoint x="420" y="330" as="targetPoint"/>
                        <mxPoint as="offset"/>
                    </mxGeometry>
                </mxCell>
                <mxCell id="2KqFXeakOvfAGIVKfcWQ-0" value="Custom Ramen" style="ellipse;whiteSpace=wrap;html=1;strokeColor=#000000;fontColor=#0D0E12;fillColor=none;" parent="HqIOuUhi2kU-NIX-ghaw-1" vertex="1">
                    <mxGeometry x="660" y="370" width="120" height="60" as="geometry"/>
                </mxCell>
                <mxCell id="2KqFXeakOvfAGIVKfcWQ-7" style="edgeStyle=orthogonalEdgeStyle;rounded=0;orthogonalLoop=1;jettySize=auto;html=1;entryX=0;entryY=0.5;entryDx=0;entryDy=0;strokeColor=#000000;fontColor=#0D0E12;" parent="HqIOuUhi2kU-NIX-ghaw-1" source="2KqFXeakOvfAGIVKfcWQ-6" target="HqIOuUhi2kU-NIX-ghaw-4" edge="1">
                    <mxGeometry relative="1" as="geometry">
                        <Array as="points">
                            <mxPoint x="200" y="190"/>
                            <mxPoint x="200" y="190"/>
                        </Array>
                    </mxGeometry>
                </mxCell>
                <mxCell id="2KqFXeakOvfAGIVKfcWQ-6" value="Guest" style="shape=umlActor;verticalLabelPosition=bottom;verticalAlign=top;html=1;strokeColor=#000000;fontColor=#0D0E12;" parent="HqIOuUhi2kU-NIX-ghaw-1" vertex="1">
                    <mxGeometry x="100" y="160" width="30" height="60" as="geometry"/>
                </mxCell>
                <mxCell id="HqIOuUhi2kU-NIX-ghaw-16" value="&lt;b&gt;Hari Hari Ramen System&lt;/b&gt;" style="text;html=1;align=center;verticalAlign=middle;resizable=0;points=[];autosize=1;strokeColor=#000000;fontColor=#0D0E12;" parent="HqIOuUhi2kU-NIX-ghaw-1" vertex="1">
                    <mxGeometry x="485" y="80" width="150" height="20" as="geometry"/>
                </mxCell>
                <mxCell id="5A-oOUaq3Q1xKJLpsagU-5" value="&amp;lt;&amp;lt;extend&amp;gt;&amp;gt;" style="rounded=0;orthogonalLoop=1;jettySize=auto;html=1;dashed=1;entryX=1;entryY=0.5;entryDx=0;entryDy=0;strokeColor=#000000;fontColor=#0D0E12;labelBackgroundColor=none;" parent="HqIOuUhi2kU-NIX-ghaw-1" source="5A-oOUaq3Q1xKJLpsagU-1" target="0Y3vDBZV-FA1QUZxAho4-3" edge="1">
                    <mxGeometry x="0.0013" y="-12" relative="1" as="geometry">
                        <mxPoint as="offset"/>
                    </mxGeometry>
                </mxCell>
                <mxCell id="5A-oOUaq3Q1xKJLpsagU-1" value="Add to Basket" style="ellipse;whiteSpace=wrap;html=1;strokeColor=#000000;fontColor=#0D0E12;fillColor=none;" parent="HqIOuUhi2kU-NIX-ghaw-1" vertex="1">
                    <mxGeometry x="660" y="230" width="120" height="60" as="geometry"/>
                </mxCell>
                <mxCell id="5A-oOUaq3Q1xKJLpsagU-6" value="&amp;lt;&amp;lt;extend&amp;gt;&amp;gt;" style="rounded=0;orthogonalLoop=1;jettySize=auto;html=1;entryX=1;entryY=0.5;entryDx=0;entryDy=0;dashed=1;exitX=0;exitY=0.5;exitDx=0;exitDy=0;edgeStyle=orthogonalEdgeStyle;strokeColor=#000000;fontColor=#0D0E12;labelBackgroundColor=none;" parent="HqIOuUhi2kU-NIX-ghaw-1" source="5A-oOUaq3Q1xKJLpsagU-3" target="0Y3vDBZV-FA1QUZxAho4-3" edge="1">
                    <mxGeometry x="-0.1034" y="-10" relative="1" as="geometry">
                        <mxPoint as="offset"/>
                    </mxGeometry>
                </mxCell>
                <mxCell id="5A-oOUaq3Q1xKJLpsagU-3" value="View Menu's Info" style="ellipse;whiteSpace=wrap;html=1;strokeColor=#000000;fontColor=#0D0E12;fillColor=none;" parent="HqIOuUhi2kU-NIX-ghaw-1" vertex="1">
                    <mxGeometry x="710" y="300" width="120" height="60" as="geometry"/>
                </mxCell>
                <mxCell id="5A-oOUaq3Q1xKJLpsagU-8" value="Change Language" style="ellipse;whiteSpace=wrap;html=1;strokeColor=#000000;fontColor=#0D0E12;fillColor=none;" parent="HqIOuUhi2kU-NIX-ghaw-1" vertex="1">
                    <mxGeometry x="300" y="740" width="120" height="60" as="geometry"/>
                </mxCell>
                <mxCell id="5A-oOUaq3Q1xKJLpsagU-9" value="View Basket" style="ellipse;whiteSpace=wrap;html=1;strokeColor=#000000;fontColor=#0D0E12;fillColor=none;" parent="HqIOuUhi2kU-NIX-ghaw-1" vertex="1">
                    <mxGeometry x="300" y="860" width="120" height="60" as="geometry"/>
                </mxCell>
                <mxCell id="5A-oOUaq3Q1xKJLpsagU-15" value="&amp;lt;&amp;lt;extend&amp;gt;&amp;gt;" style="edgeStyle=none;rounded=0;orthogonalLoop=1;jettySize=auto;html=1;dashed=1;entryX=1;entryY=0.5;entryDx=0;entryDy=0;strokeColor=#000000;fontColor=#0D0E12;labelBackgroundColor=none;" parent="HqIOuUhi2kU-NIX-ghaw-1" source="5A-oOUaq3Q1xKJLpsagU-10" target="5A-oOUaq3Q1xKJLpsagU-9" edge="1">
                    <mxGeometry x="0.0976" y="-24" relative="1" as="geometry">
                        <mxPoint as="offset"/>
                    </mxGeometry>
                </mxCell>
                <mxCell id="5A-oOUaq3Q1xKJLpsagU-10" value="Edit Item" style="ellipse;whiteSpace=wrap;html=1;strokeColor=#000000;fontColor=#0D0E12;fillColor=none;" parent="HqIOuUhi2kU-NIX-ghaw-1" vertex="1">
                    <mxGeometry x="510" y="770" width="120" height="60" as="geometry"/>
                </mxCell>
                <mxCell id="5A-oOUaq3Q1xKJLpsagU-14" value="&amp;lt;&amp;lt;extend&amp;gt;&amp;gt;" style="edgeStyle=none;rounded=0;orthogonalLoop=1;jettySize=auto;html=1;entryX=1;entryY=0.5;entryDx=0;entryDy=0;dashed=1;strokeColor=#000000;fontColor=#0D0E12;labelBackgroundColor=none;" parent="HqIOuUhi2kU-NIX-ghaw-1" source="5A-oOUaq3Q1xKJLpsagU-11" target="5A-oOUaq3Q1xKJLpsagU-9" edge="1">
                    <mxGeometry x="0.0976" y="24" relative="1" as="geometry">
                        <mxPoint as="offset"/>
                    </mxGeometry>
                </mxCell>
                <mxCell id="5A-oOUaq3Q1xKJLpsagU-11" value="Confirm Order" style="ellipse;whiteSpace=wrap;html=1;strokeColor=#000000;fontColor=#0D0E12;fillColor=none;" parent="HqIOuUhi2kU-NIX-ghaw-1" vertex="1">
                    <mxGeometry x="515" y="930" width="120" height="60" as="geometry"/>
                </mxCell>
                <mxCell id="5A-oOUaq3Q1xKJLpsagU-20" value="&amp;lt;&amp;lt;extend&amp;gt;&amp;gt;" style="edgeStyle=none;rounded=0;orthogonalLoop=1;jettySize=auto;html=1;entryX=1;entryY=0.5;entryDx=0;entryDy=0;dashed=1;strokeColor=#000000;fontColor=#0D0E12;labelBackgroundColor=none;" parent="HqIOuUhi2kU-NIX-ghaw-1" source="5A-oOUaq3Q1xKJLpsagU-19" target="0Y3vDBZV-FA1QUZxAho4-1" edge="1">
                    <mxGeometry x="-0.1111" y="-10" relative="1" as="geometry">
                        <mxPoint as="offset"/>
                    </mxGeometry>
                </mxCell>
                <mxCell id="5A-oOUaq3Q1xKJLpsagU-19" value="Cancel Order" style="ellipse;whiteSpace=wrap;html=1;strokeColor=#000000;fontColor=#0D0E12;fillColor=none;" parent="HqIOuUhi2kU-NIX-ghaw-1" vertex="1">
                    <mxGeometry x="510" y="430" width="120" height="60" as="geometry"/>
                </mxCell>
                <mxCell id="cTgPFl0QoalUIUVzGhwA-1" value="&amp;lt;&amp;lt;extend&amp;gt;&amp;gt;" style="edgeStyle=orthogonalEdgeStyle;rounded=0;orthogonalLoop=1;jettySize=auto;html=1;exitX=0;exitY=0.5;exitDx=0;exitDy=0;entryX=1;entryY=0.5;entryDx=0;entryDy=0;dashed=1;strokeColor=#000000;fontColor=#0D0E12;labelBackgroundColor=none;" edge="1" parent="HqIOuUhi2kU-NIX-ghaw-1" source="cTgPFl0QoalUIUVzGhwA-0" target="5A-oOUaq3Q1xKJLpsagU-9">
                    <mxGeometry x="-0.3333" y="-10" relative="1" as="geometry">
                        <mxPoint as="offset"/>
                    </mxGeometry>
                </mxCell>
                <mxCell id="cTgPFl0QoalUIUVzGhwA-0" value="Remove Item" style="ellipse;whiteSpace=wrap;html=1;strokeColor=#000000;fontColor=#0D0E12;fillColor=none;" vertex="1" parent="HqIOuUhi2kU-NIX-ghaw-1">
                    <mxGeometry x="540" y="860" width="120" height="60" as="geometry"/>
                </mxCell>
            </root>
        </mxGraphModel>
    </diagram>
    <diagram id="uJ489d6tysAtEO6ksIgO" name="ER Diagram">
        <mxGraphModel dx="1080" dy="575" grid="1" gridSize="10" guides="1" tooltips="1" connect="1" arrows="1" fold="1" page="1" pageScale="1" pageWidth="1654" pageHeight="1169" math="0" shadow="0">
            <root>
                <mxCell id="0"/>
                <mxCell id="1" parent="0"/>
                <mxCell id="2" value="tables" style="shape=table;startSize=30;container=1;collapsible=0;childLayout=tableLayout;fixedRows=1;rowLines=0;fontStyle=1;align=center;labelBackgroundColor=none;fillColor=#f5f5f5;fontColor=#333333;strokeColor=#030303;" parent="1" vertex="1">
                    <mxGeometry x="120" y="320" width="200" height="210" as="geometry"/>
                </mxCell>
                <mxCell id="3" value="" style="shape=partialRectangle;html=1;whiteSpace=wrap;collapsible=0;dropTarget=0;pointerEvents=0;fillColor=#f5f5f5;top=0;left=0;bottom=1;right=0;points=[[0,0.5],[1,0.5]];portConstraint=eastwest;labelBackgroundColor=none;fontColor=#333333;strokeColor=#030303;" parent="2" vertex="1">
                    <mxGeometry y="30" width="200" height="30" as="geometry"/>
                </mxCell>
                <mxCell id="4" value="PK" style="shape=partialRectangle;html=1;whiteSpace=wrap;connectable=0;fillColor=#f5f5f5;top=0;left=0;bottom=0;right=0;overflow=hidden;labelBackgroundColor=none;fontColor=#333333;strokeColor=#030303;" parent="3" vertex="1">
                    <mxGeometry width="40" height="30" as="geometry"/>
                </mxCell>
                <mxCell id="5" value="table_id" style="shape=partialRectangle;html=1;whiteSpace=wrap;connectable=0;fillColor=#f5f5f5;top=0;left=0;bottom=0;right=0;align=left;spacingLeft=6;overflow=hidden;labelBackgroundColor=none;fontColor=#333333;strokeColor=#030303;" parent="3" vertex="1">
                    <mxGeometry x="40" width="160" height="30" as="geometry"/>
                </mxCell>
                <mxCell id="413" value="" style="shape=partialRectangle;html=1;whiteSpace=wrap;collapsible=0;dropTarget=0;pointerEvents=0;fillColor=#f5f5f5;top=0;left=0;bottom=0;right=0;points=[[0,0.5],[1,0.5]];portConstraint=eastwest;labelBackgroundColor=none;fontColor=#333333;strokeColor=#030303;" parent="2" vertex="1">
                    <mxGeometry y="60" width="200" height="30" as="geometry"/>
                </mxCell>
                <mxCell id="414" value="" style="shape=partialRectangle;html=1;whiteSpace=wrap;connectable=0;fillColor=#f5f5f5;top=0;left=0;bottom=0;right=0;overflow=hidden;labelBackgroundColor=none;fontColor=#333333;strokeColor=#030303;" parent="413" vertex="1">
                    <mxGeometry width="40" height="30" as="geometry"/>
                </mxCell>
                <mxCell id="415" value="guest_uid" style="shape=partialRectangle;html=1;whiteSpace=wrap;connectable=0;fillColor=#f5f5f5;top=0;left=0;bottom=0;right=0;align=left;spacingLeft=6;overflow=hidden;labelBackgroundColor=none;fontColor=#333333;strokeColor=#030303;" parent="413" vertex="1">
                    <mxGeometry x="40" width="160" height="30" as="geometry"/>
                </mxCell>
                <mxCell id="9" value="" style="shape=partialRectangle;html=1;whiteSpace=wrap;collapsible=0;dropTarget=0;pointerEvents=0;fillColor=#f5f5f5;top=0;left=0;bottom=0;right=0;points=[[0,0.5],[1,0.5]];portConstraint=eastwest;labelBackgroundColor=none;fontColor=#333333;strokeColor=#030303;" parent="2" vertex="1">
                    <mxGeometry y="90" width="200" height="30" as="geometry"/>
                </mxCell>
                <mxCell id="10" value="" style="shape=partialRectangle;html=1;whiteSpace=wrap;connectable=0;fillColor=#f5f5f5;top=0;left=0;bottom=0;right=0;overflow=hidden;labelBackgroundColor=none;fontColor=#333333;strokeColor=#030303;" parent="9" vertex="1">
                    <mxGeometry width="40" height="30" as="geometry"/>
                </mxCell>
                <mxCell id="11" value="reserve" style="shape=partialRectangle;html=1;whiteSpace=wrap;connectable=0;fillColor=#f5f5f5;top=0;left=0;bottom=0;right=0;align=left;spacingLeft=6;overflow=hidden;labelBackgroundColor=none;fontColor=#333333;strokeColor=#030303;" parent="9" vertex="1">
                    <mxGeometry x="40" width="160" height="30" as="geometry"/>
                </mxCell>
                <mxCell id="15" value="" style="shape=partialRectangle;html=1;whiteSpace=wrap;collapsible=0;dropTarget=0;pointerEvents=0;fillColor=#f5f5f5;top=0;left=0;bottom=0;right=0;points=[[0,0.5],[1,0.5]];portConstraint=eastwest;labelBackgroundColor=none;fontColor=#333333;strokeColor=#030303;" parent="2" vertex="1">
                    <mxGeometry y="120" width="200" height="30" as="geometry"/>
                </mxCell>
                <mxCell id="16" value="" style="shape=partialRectangle;html=1;whiteSpace=wrap;connectable=0;fillColor=#f5f5f5;top=0;left=0;bottom=0;right=0;overflow=hidden;labelBackgroundColor=none;fontColor=#333333;strokeColor=#030303;" parent="15" vertex="1">
                    <mxGeometry width="40" height="30" as="geometry"/>
                </mxCell>
                <mxCell id="17" value="status" style="shape=partialRectangle;html=1;whiteSpace=wrap;connectable=0;fillColor=#f5f5f5;top=0;left=0;bottom=0;right=0;align=left;spacingLeft=6;overflow=hidden;labelBackgroundColor=none;fontColor=#333333;strokeColor=#030303;" parent="15" vertex="1">
                    <mxGeometry x="40" width="160" height="30" as="geometry"/>
                </mxCell>
                <mxCell id="18" value="" style="shape=partialRectangle;html=1;whiteSpace=wrap;collapsible=0;dropTarget=0;pointerEvents=0;fillColor=#f5f5f5;top=0;left=0;bottom=0;right=0;points=[[0,0.5],[1,0.5]];portConstraint=eastwest;labelBackgroundColor=none;fontColor=#333333;strokeColor=#030303;" parent="2" vertex="1">
                    <mxGeometry y="150" width="200" height="30" as="geometry"/>
                </mxCell>
                <mxCell id="19" value="" style="shape=partialRectangle;html=1;whiteSpace=wrap;connectable=0;fillColor=#f5f5f5;top=0;left=0;bottom=0;right=0;overflow=hidden;labelBackgroundColor=none;fontColor=#333333;strokeColor=#030303;" parent="18" vertex="1">
                    <mxGeometry width="40" height="30" as="geometry"/>
                </mxCell>
                <mxCell id="20" value="created_at" style="shape=partialRectangle;html=1;whiteSpace=wrap;connectable=0;fillColor=#f5f5f5;top=0;left=0;bottom=0;right=0;align=left;spacingLeft=6;overflow=hidden;labelBackgroundColor=none;fontColor=#333333;strokeColor=#030303;" parent="18" vertex="1">
                    <mxGeometry x="40" width="160" height="30" as="geometry"/>
                </mxCell>
                <mxCell id="12" value="" style="shape=partialRectangle;html=1;whiteSpace=wrap;collapsible=0;dropTarget=0;pointerEvents=0;fillColor=#f5f5f5;top=0;left=0;bottom=0;right=0;points=[[0,0.5],[1,0.5]];portConstraint=eastwest;labelBackgroundColor=none;fontColor=#333333;strokeColor=#030303;" parent="2" vertex="1">
                    <mxGeometry y="180" width="200" height="30" as="geometry"/>
                </mxCell>
                <mxCell id="13" value="" style="shape=partialRectangle;html=1;whiteSpace=wrap;connectable=0;fillColor=#f5f5f5;top=0;left=0;bottom=0;right=0;overflow=hidden;labelBackgroundColor=none;fontColor=#333333;strokeColor=#030303;" parent="12" vertex="1">
                    <mxGeometry width="40" height="30" as="geometry"/>
                </mxCell>
                <mxCell id="14" value="updated_at" style="shape=partialRectangle;html=1;whiteSpace=wrap;connectable=0;fillColor=#f5f5f5;top=0;left=0;bottom=0;right=0;align=left;spacingLeft=6;overflow=hidden;labelBackgroundColor=none;fontColor=#333333;strokeColor=#030303;" parent="12" vertex="1">
                    <mxGeometry x="40" width="160" height="30" as="geometry"/>
                </mxCell>
                <mxCell id="21" value="ramen_choices" style="shape=table;startSize=30;container=1;collapsible=0;childLayout=tableLayout;fixedRows=1;rowLines=0;fontStyle=1;align=center;labelBackgroundColor=none;fillColor=#f5f5f5;fontColor=#333333;strokeColor=#030303;" parent="1" vertex="1">
                    <mxGeometry x="680" y="750" width="200" height="210" as="geometry"/>
                </mxCell>
                <mxCell id="22" value="" style="shape=partialRectangle;html=1;whiteSpace=wrap;collapsible=0;dropTarget=0;pointerEvents=0;fillColor=#f5f5f5;top=0;left=0;bottom=1;right=0;points=[[0,0.5],[1,0.5]];portConstraint=eastwest;labelBackgroundColor=none;fontColor=#333333;strokeColor=#030303;" parent="21" vertex="1">
                    <mxGeometry y="30" width="200" height="30" as="geometry"/>
                </mxCell>
                <mxCell id="23" value="PK" style="shape=partialRectangle;html=1;whiteSpace=wrap;connectable=0;fillColor=#f5f5f5;top=0;left=0;bottom=0;right=0;overflow=hidden;labelBackgroundColor=none;fontColor=#333333;strokeColor=#030303;" parent="22" vertex="1">
                    <mxGeometry width="40" height="30" as="geometry"/>
                </mxCell>
                <mxCell id="24" value="choice_id" style="shape=partialRectangle;html=1;whiteSpace=wrap;connectable=0;fillColor=#f5f5f5;top=0;left=0;bottom=0;right=0;align=left;spacingLeft=6;overflow=hidden;labelBackgroundColor=none;fontColor=#333333;strokeColor=#030303;" parent="22" vertex="1">
                    <mxGeometry x="40" width="160" height="30" as="geometry"/>
                </mxCell>
                <mxCell id="110" value="" style="shape=partialRectangle;html=1;whiteSpace=wrap;collapsible=0;dropTarget=0;pointerEvents=0;fillColor=#f5f5f5;top=0;left=0;bottom=0;right=0;points=[[0,0.5],[1,0.5]];portConstraint=eastwest;labelBackgroundColor=none;fontColor=#333333;strokeColor=#030303;" parent="21" vertex="1">
                    <mxGeometry y="60" width="200" height="30" as="geometry"/>
                </mxCell>
                <mxCell id="111" value="" style="shape=partialRectangle;html=1;whiteSpace=wrap;connectable=0;fillColor=#f5f5f5;top=0;left=0;bottom=0;right=0;overflow=hidden;labelBackgroundColor=none;fontColor=#333333;strokeColor=#030303;" parent="110" vertex="1">
                    <mxGeometry width="40" height="30" as="geometry"/>
                </mxCell>
                <mxCell id="112" value="image_url" style="shape=partialRectangle;html=1;whiteSpace=wrap;connectable=0;fillColor=#f5f5f5;top=0;left=0;bottom=0;right=0;align=left;spacingLeft=6;overflow=hidden;labelBackgroundColor=none;fontColor=#333333;strokeColor=#030303;" parent="110" vertex="1">
                    <mxGeometry x="40" width="160" height="30" as="geometry"/>
                </mxCell>
                <mxCell id="113" value="" style="shape=partialRectangle;html=1;whiteSpace=wrap;collapsible=0;dropTarget=0;pointerEvents=0;fillColor=#f5f5f5;top=0;left=0;bottom=0;right=0;points=[[0,0.5],[1,0.5]];portConstraint=eastwest;labelBackgroundColor=none;fontColor=#333333;strokeColor=#030303;" parent="21" vertex="1">
                    <mxGeometry y="90" width="200" height="30" as="geometry"/>
                </mxCell>
                <mxCell id="114" value="" style="shape=partialRectangle;html=1;whiteSpace=wrap;connectable=0;fillColor=#f5f5f5;top=0;left=0;bottom=0;right=0;overflow=hidden;labelBackgroundColor=none;fontColor=#333333;strokeColor=#030303;" parent="113" vertex="1">
                    <mxGeometry width="40" height="30" as="geometry"/>
                </mxCell>
                <mxCell id="115" value="price" style="shape=partialRectangle;html=1;whiteSpace=wrap;connectable=0;fillColor=#f5f5f5;top=0;left=0;bottom=0;right=0;align=left;spacingLeft=6;overflow=hidden;labelBackgroundColor=none;fontColor=#333333;strokeColor=#030303;" parent="113" vertex="1">
                    <mxGeometry x="40" width="160" height="30" as="geometry"/>
                </mxCell>
                <mxCell id="165" value="" style="shape=partialRectangle;html=1;whiteSpace=wrap;collapsible=0;dropTarget=0;pointerEvents=0;fillColor=#f5f5f5;top=0;left=0;bottom=0;right=0;points=[[0,0.5],[1,0.5]];portConstraint=eastwest;labelBackgroundColor=none;fontColor=#333333;strokeColor=#030303;" parent="21" vertex="1">
                    <mxGeometry y="120" width="200" height="30" as="geometry"/>
                </mxCell>
                <mxCell id="166" value="" style="shape=partialRectangle;html=1;whiteSpace=wrap;connectable=0;fillColor=#f5f5f5;top=0;left=0;bottom=0;right=0;overflow=hidden;labelBackgroundColor=none;fontColor=#333333;strokeColor=#030303;" parent="165" vertex="1">
                    <mxGeometry width="40" height="30" as="geometry"/>
                </mxCell>
                <mxCell id="167" value="status" style="shape=partialRectangle;html=1;whiteSpace=wrap;connectable=0;fillColor=#f5f5f5;top=0;left=0;bottom=0;right=0;align=left;spacingLeft=6;overflow=hidden;labelBackgroundColor=none;fontColor=#333333;strokeColor=#030303;" parent="165" vertex="1">
                    <mxGeometry x="40" width="160" height="30" as="geometry"/>
                </mxCell>
                <mxCell id="37" value="" style="shape=partialRectangle;html=1;whiteSpace=wrap;collapsible=0;dropTarget=0;pointerEvents=0;fillColor=#f5f5f5;top=0;left=0;bottom=0;right=0;points=[[0,0.5],[1,0.5]];portConstraint=eastwest;labelBackgroundColor=none;fontColor=#333333;strokeColor=#030303;" parent="21" vertex="1">
                    <mxGeometry y="150" width="200" height="30" as="geometry"/>
                </mxCell>
                <mxCell id="38" value="" style="shape=partialRectangle;html=1;whiteSpace=wrap;connectable=0;fillColor=#f5f5f5;top=0;left=0;bottom=0;right=0;overflow=hidden;labelBackgroundColor=none;fontColor=#333333;strokeColor=#030303;" parent="37" vertex="1">
                    <mxGeometry width="40" height="30" as="geometry"/>
                </mxCell>
                <mxCell id="39" value="created_at" style="shape=partialRectangle;html=1;whiteSpace=wrap;connectable=0;fillColor=#f5f5f5;top=0;left=0;bottom=0;right=0;align=left;spacingLeft=6;overflow=hidden;labelBackgroundColor=none;fontColor=#333333;strokeColor=#030303;" parent="37" vertex="1">
                    <mxGeometry x="40" width="160" height="30" as="geometry"/>
                </mxCell>
                <mxCell id="34" value="" style="shape=partialRectangle;html=1;whiteSpace=wrap;collapsible=0;dropTarget=0;pointerEvents=0;fillColor=#f5f5f5;top=0;left=0;bottom=0;right=0;points=[[0,0.5],[1,0.5]];portConstraint=eastwest;labelBackgroundColor=none;fontColor=#333333;strokeColor=#030303;" parent="21" vertex="1">
                    <mxGeometry y="180" width="200" height="30" as="geometry"/>
                </mxCell>
                <mxCell id="35" value="" style="shape=partialRectangle;html=1;whiteSpace=wrap;connectable=0;fillColor=#f5f5f5;top=0;left=0;bottom=0;right=0;overflow=hidden;labelBackgroundColor=none;fontColor=#333333;strokeColor=#030303;" parent="34" vertex="1">
                    <mxGeometry width="40" height="30" as="geometry"/>
                </mxCell>
                <mxCell id="36" value="updated_at" style="shape=partialRectangle;html=1;whiteSpace=wrap;connectable=0;fillColor=#f5f5f5;top=0;left=0;bottom=0;right=0;align=left;spacingLeft=6;overflow=hidden;labelBackgroundColor=none;fontColor=#333333;strokeColor=#030303;" parent="34" vertex="1">
                    <mxGeometry x="40" width="160" height="30" as="geometry"/>
                </mxCell>
                <mxCell id="40" value="bills" style="shape=table;startSize=30;container=1;collapsible=0;childLayout=tableLayout;fixedRows=1;rowLines=0;fontStyle=1;align=center;labelBackgroundColor=none;fillColor=#f5f5f5;fontColor=#333333;strokeColor=#030303;" parent="1" vertex="1">
                    <mxGeometry x="120" y="550" width="200" height="240" as="geometry"/>
                </mxCell>
                <mxCell id="41" value="" style="shape=partialRectangle;html=1;whiteSpace=wrap;collapsible=0;dropTarget=0;pointerEvents=0;fillColor=#f5f5f5;top=0;left=0;bottom=1;right=0;points=[[0,0.5],[1,0.5]];portConstraint=eastwest;labelBackgroundColor=none;fontColor=#333333;strokeColor=#030303;" parent="40" vertex="1">
                    <mxGeometry y="30" width="200" height="30" as="geometry"/>
                </mxCell>
                <mxCell id="42" value="PK" style="shape=partialRectangle;html=1;whiteSpace=wrap;connectable=0;fillColor=#f5f5f5;top=0;left=0;bottom=0;right=0;overflow=hidden;labelBackgroundColor=none;fontColor=#333333;strokeColor=#030303;" parent="41" vertex="1">
                    <mxGeometry width="40" height="30" as="geometry"/>
                </mxCell>
                <mxCell id="43" value="bill_id" style="shape=partialRectangle;html=1;whiteSpace=wrap;connectable=0;fillColor=#f5f5f5;top=0;left=0;bottom=0;right=0;align=left;spacingLeft=6;overflow=hidden;labelBackgroundColor=none;fontColor=#333333;strokeColor=#030303;" parent="41" vertex="1">
                    <mxGeometry x="40" width="160" height="30" as="geometry"/>
                </mxCell>
                <mxCell id="47" value="" style="shape=partialRectangle;html=1;whiteSpace=wrap;collapsible=0;dropTarget=0;pointerEvents=0;fillColor=#f5f5f5;top=0;left=0;bottom=0;right=0;points=[[0,0.5],[1,0.5]];portConstraint=eastwest;labelBackgroundColor=none;fontColor=#333333;strokeColor=#030303;" parent="40" vertex="1">
                    <mxGeometry y="60" width="200" height="30" as="geometry"/>
                </mxCell>
                <mxCell id="48" value="FK" style="shape=partialRectangle;html=1;whiteSpace=wrap;connectable=0;fillColor=#f5f5f5;top=0;left=0;bottom=0;right=0;overflow=hidden;labelBackgroundColor=none;fontColor=#333333;strokeColor=#030303;" parent="47" vertex="1">
                    <mxGeometry width="40" height="30" as="geometry"/>
                </mxCell>
                <mxCell id="49" value="table_id&lt;br&gt;" style="shape=partialRectangle;html=1;whiteSpace=wrap;connectable=0;fillColor=#f5f5f5;top=0;left=0;bottom=0;right=0;align=left;spacingLeft=6;overflow=hidden;labelBackgroundColor=none;fontColor=#333333;strokeColor=#030303;" parent="47" vertex="1">
                    <mxGeometry x="40" width="160" height="30" as="geometry"/>
                </mxCell>
                <mxCell id="50" value="" style="shape=partialRectangle;html=1;whiteSpace=wrap;collapsible=0;dropTarget=0;pointerEvents=0;fillColor=#f5f5f5;top=0;left=0;bottom=0;right=0;points=[[0,0.5],[1,0.5]];portConstraint=eastwest;labelBackgroundColor=none;fontColor=#333333;strokeColor=#030303;" parent="40" vertex="1">
                    <mxGeometry y="90" width="200" height="30" as="geometry"/>
                </mxCell>
                <mxCell id="51" value="" style="shape=partialRectangle;html=1;whiteSpace=wrap;connectable=0;fillColor=#f5f5f5;top=0;left=0;bottom=0;right=0;overflow=hidden;labelBackgroundColor=none;fontColor=#333333;strokeColor=#030303;" parent="50" vertex="1">
                    <mxGeometry width="40" height="30" as="geometry"/>
                </mxCell>
                <mxCell id="52" value="subtotal" style="shape=partialRectangle;html=1;whiteSpace=wrap;connectable=0;fillColor=#f5f5f5;top=0;left=0;bottom=0;right=0;align=left;spacingLeft=6;overflow=hidden;labelBackgroundColor=none;fontColor=#333333;strokeColor=#030303;" parent="50" vertex="1">
                    <mxGeometry x="40" width="160" height="30" as="geometry"/>
                </mxCell>
                <mxCell id="65" value="" style="shape=partialRectangle;html=1;whiteSpace=wrap;collapsible=0;dropTarget=0;pointerEvents=0;fillColor=#f5f5f5;top=0;left=0;bottom=0;right=0;points=[[0,0.5],[1,0.5]];portConstraint=eastwest;labelBackgroundColor=none;fontColor=#333333;strokeColor=#030303;" parent="40" vertex="1">
                    <mxGeometry y="120" width="200" height="30" as="geometry"/>
                </mxCell>
                <mxCell id="66" value="" style="shape=partialRectangle;html=1;whiteSpace=wrap;connectable=0;fillColor=#f5f5f5;top=0;left=0;bottom=0;right=0;overflow=hidden;labelBackgroundColor=none;fontColor=#333333;strokeColor=#030303;" parent="65" vertex="1">
                    <mxGeometry width="40" height="30" as="geometry"/>
                </mxCell>
                <mxCell id="67" value="status" style="shape=partialRectangle;html=1;whiteSpace=wrap;connectable=0;fillColor=#f5f5f5;top=0;left=0;bottom=0;right=0;align=left;spacingLeft=6;overflow=hidden;labelBackgroundColor=none;fontColor=#333333;strokeColor=#030303;" parent="65" vertex="1">
                    <mxGeometry x="40" width="160" height="30" as="geometry"/>
                </mxCell>
                <mxCell id="392" value="" style="shape=partialRectangle;html=1;whiteSpace=wrap;collapsible=0;dropTarget=0;pointerEvents=0;fillColor=#f5f5f5;top=0;left=0;bottom=0;right=0;points=[[0,0.5],[1,0.5]];portConstraint=eastwest;labelBackgroundColor=none;fontColor=#333333;strokeColor=#030303;" parent="40" vertex="1">
                    <mxGeometry y="150" width="200" height="30" as="geometry"/>
                </mxCell>
                <mxCell id="393" value="" style="shape=partialRectangle;html=1;whiteSpace=wrap;connectable=0;fillColor=#f5f5f5;top=0;left=0;bottom=0;right=0;overflow=hidden;labelBackgroundColor=none;fontColor=#333333;strokeColor=#030303;" parent="392" vertex="1">
                    <mxGeometry width="40" height="30" as="geometry"/>
                </mxCell>
                <mxCell id="394" value="checkout_at" style="shape=partialRectangle;html=1;whiteSpace=wrap;connectable=0;fillColor=#f5f5f5;top=0;left=0;bottom=0;right=0;align=left;spacingLeft=6;overflow=hidden;labelBackgroundColor=none;fontColor=#333333;strokeColor=#030303;" parent="392" vertex="1">
                    <mxGeometry x="40" width="160" height="30" as="geometry"/>
                </mxCell>
                <mxCell id="73" value="" style="shape=partialRectangle;html=1;whiteSpace=wrap;collapsible=0;dropTarget=0;pointerEvents=0;fillColor=#f5f5f5;top=0;left=0;bottom=0;right=0;points=[[0,0.5],[1,0.5]];portConstraint=eastwest;labelBackgroundColor=none;fontColor=#333333;strokeColor=#030303;" parent="40" vertex="1">
                    <mxGeometry y="180" width="200" height="30" as="geometry"/>
                </mxCell>
                <mxCell id="74" value="" style="shape=partialRectangle;html=1;whiteSpace=wrap;connectable=0;fillColor=#f5f5f5;top=0;left=0;bottom=0;right=0;overflow=hidden;labelBackgroundColor=none;fontColor=#333333;strokeColor=#030303;" parent="73" vertex="1">
                    <mxGeometry width="40" height="30" as="geometry"/>
                </mxCell>
                <mxCell id="75" value="created_at" style="shape=partialRectangle;html=1;whiteSpace=wrap;connectable=0;fillColor=#f5f5f5;top=0;left=0;bottom=0;right=0;align=left;spacingLeft=6;overflow=hidden;labelBackgroundColor=none;fontColor=#333333;strokeColor=#030303;" parent="73" vertex="1">
                    <mxGeometry x="40" width="160" height="30" as="geometry"/>
                </mxCell>
                <mxCell id="68" value="" style="shape=partialRectangle;html=1;whiteSpace=wrap;collapsible=0;dropTarget=0;pointerEvents=0;fillColor=#f5f5f5;top=0;left=0;bottom=0;right=0;points=[[0,0.5],[1,0.5]];portConstraint=eastwest;labelBackgroundColor=none;fontColor=#333333;strokeColor=#030303;" parent="40" vertex="1">
                    <mxGeometry y="210" width="200" height="30" as="geometry"/>
                </mxCell>
                <mxCell id="69" value="" style="shape=partialRectangle;html=1;whiteSpace=wrap;connectable=0;fillColor=#f5f5f5;top=0;left=0;bottom=0;right=0;overflow=hidden;labelBackgroundColor=none;fontColor=#333333;strokeColor=#030303;" parent="68" vertex="1">
                    <mxGeometry width="40" height="30" as="geometry"/>
                </mxCell>
                <mxCell id="70" value="updated_at" style="shape=partialRectangle;html=1;whiteSpace=wrap;connectable=0;fillColor=#f5f5f5;top=0;left=0;bottom=0;right=0;align=left;spacingLeft=6;overflow=hidden;labelBackgroundColor=none;fontColor=#333333;strokeColor=#030303;" parent="68" vertex="1">
                    <mxGeometry x="40" width="160" height="30" as="geometry"/>
                </mxCell>
                <mxCell id="264" style="edgeStyle=orthogonalEdgeStyle;rounded=0;orthogonalLoop=1;jettySize=auto;html=1;entryX=1;entryY=0.5;entryDx=0;entryDy=0;exitX=0;exitY=0.5;exitDx=0;exitDy=0;endArrow=ERone;endFill=0;startArrow=ERoneToMany;startFill=0;labelBackgroundColor=none;fillColor=#f5f5f5;fontColor=#000000;strokeColor=#030303;" parent="1" source="83" target="41" edge="1">
                    <mxGeometry relative="1" as="geometry"/>
                </mxCell>
                <mxCell id="76" value="orders" style="shape=table;startSize=30;container=1;collapsible=0;childLayout=tableLayout;fixedRows=1;rowLines=0;fontStyle=1;align=center;labelBackgroundColor=none;fillColor=#f5f5f5;fontColor=#333333;strokeColor=#030303;" parent="1" vertex="1">
                    <mxGeometry x="400" y="320" width="200" height="180" as="geometry"/>
                </mxCell>
                <mxCell id="77" value="" style="shape=partialRectangle;html=1;whiteSpace=wrap;collapsible=0;dropTarget=0;pointerEvents=0;fillColor=#f5f5f5;top=0;left=0;bottom=1;right=0;points=[[0,0.5],[1,0.5]];portConstraint=eastwest;labelBackgroundColor=none;fontColor=#333333;strokeColor=#030303;" parent="76" vertex="1">
                    <mxGeometry y="30" width="200" height="30" as="geometry"/>
                </mxCell>
                <mxCell id="78" value="PK" style="shape=partialRectangle;html=1;whiteSpace=wrap;connectable=0;fillColor=#f5f5f5;top=0;left=0;bottom=0;right=0;overflow=hidden;labelBackgroundColor=none;fontColor=#333333;strokeColor=#030303;" parent="77" vertex="1">
                    <mxGeometry width="40" height="30" as="geometry"/>
                </mxCell>
                <mxCell id="79" value="order_id" style="shape=partialRectangle;html=1;whiteSpace=wrap;connectable=0;fillColor=#f5f5f5;top=0;left=0;bottom=0;right=0;align=left;spacingLeft=6;overflow=hidden;labelBackgroundColor=none;fontColor=#333333;strokeColor=#030303;" parent="77" vertex="1">
                    <mxGeometry x="40" width="160" height="30" as="geometry"/>
                </mxCell>
                <mxCell id="83" value="" style="shape=partialRectangle;html=1;whiteSpace=wrap;collapsible=0;dropTarget=0;pointerEvents=0;fillColor=#f5f5f5;top=0;left=0;bottom=0;right=0;points=[[0,0.5],[1,0.5]];portConstraint=eastwest;labelBackgroundColor=none;fontColor=#333333;strokeColor=#030303;" parent="76" vertex="1">
                    <mxGeometry y="60" width="200" height="30" as="geometry"/>
                </mxCell>
                <mxCell id="84" value="FK" style="shape=partialRectangle;html=1;whiteSpace=wrap;connectable=0;fillColor=#f5f5f5;top=0;left=0;bottom=0;right=0;overflow=hidden;labelBackgroundColor=none;fontColor=#333333;strokeColor=#030303;" parent="83" vertex="1">
                    <mxGeometry width="40" height="30" as="geometry"/>
                </mxCell>
                <mxCell id="85" value="bill_id" style="shape=partialRectangle;html=1;whiteSpace=wrap;connectable=0;fillColor=#f5f5f5;top=0;left=0;bottom=0;right=0;align=left;spacingLeft=6;overflow=hidden;labelBackgroundColor=none;fontColor=#333333;strokeColor=#030303;" parent="83" vertex="1">
                    <mxGeometry x="40" width="160" height="30" as="geometry"/>
                </mxCell>
                <mxCell id="89" value="" style="shape=partialRectangle;html=1;whiteSpace=wrap;collapsible=0;dropTarget=0;pointerEvents=0;fillColor=#f5f5f5;top=0;left=0;bottom=0;right=0;points=[[0,0.5],[1,0.5]];portConstraint=eastwest;labelBackgroundColor=none;fontColor=#333333;strokeColor=#030303;" parent="76" vertex="1">
                    <mxGeometry y="90" width="200" height="30" as="geometry"/>
                </mxCell>
                <mxCell id="90" value="" style="shape=partialRectangle;html=1;whiteSpace=wrap;connectable=0;fillColor=#f5f5f5;top=0;left=0;bottom=0;right=0;overflow=hidden;labelBackgroundColor=none;fontColor=#333333;strokeColor=#030303;" parent="89" vertex="1">
                    <mxGeometry width="40" height="30" as="geometry"/>
                </mxCell>
                <mxCell id="91" value="status" style="shape=partialRectangle;html=1;whiteSpace=wrap;connectable=0;fillColor=#f5f5f5;top=0;left=0;bottom=0;right=0;align=left;spacingLeft=6;overflow=hidden;labelBackgroundColor=none;fontColor=#333333;strokeColor=#030303;" parent="89" vertex="1">
                    <mxGeometry x="40" width="160" height="30" as="geometry"/>
                </mxCell>
                <mxCell id="95" value="" style="shape=partialRectangle;html=1;whiteSpace=wrap;collapsible=0;dropTarget=0;pointerEvents=0;fillColor=#f5f5f5;top=0;left=0;bottom=0;right=0;points=[[0,0.5],[1,0.5]];portConstraint=eastwest;labelBackgroundColor=none;fontColor=#333333;strokeColor=#030303;" parent="76" vertex="1">
                    <mxGeometry y="120" width="200" height="30" as="geometry"/>
                </mxCell>
                <mxCell id="96" value="" style="shape=partialRectangle;html=1;whiteSpace=wrap;connectable=0;fillColor=#f5f5f5;top=0;left=0;bottom=0;right=0;overflow=hidden;labelBackgroundColor=none;fontColor=#333333;strokeColor=#030303;" parent="95" vertex="1">
                    <mxGeometry width="40" height="30" as="geometry"/>
                </mxCell>
                <mxCell id="97" value="created_at" style="shape=partialRectangle;html=1;whiteSpace=wrap;connectable=0;fillColor=#f5f5f5;top=0;left=0;bottom=0;right=0;align=left;spacingLeft=6;overflow=hidden;labelBackgroundColor=none;fontColor=#333333;strokeColor=#030303;" parent="95" vertex="1">
                    <mxGeometry x="40" width="160" height="30" as="geometry"/>
                </mxCell>
                <mxCell id="92" value="" style="shape=partialRectangle;html=1;whiteSpace=wrap;collapsible=0;dropTarget=0;pointerEvents=0;fillColor=#f5f5f5;top=0;left=0;bottom=0;right=0;points=[[0,0.5],[1,0.5]];portConstraint=eastwest;labelBackgroundColor=none;fontColor=#333333;strokeColor=#030303;" parent="76" vertex="1">
                    <mxGeometry y="150" width="200" height="30" as="geometry"/>
                </mxCell>
                <mxCell id="93" value="" style="shape=partialRectangle;html=1;whiteSpace=wrap;connectable=0;fillColor=#f5f5f5;top=0;left=0;bottom=0;right=0;overflow=hidden;labelBackgroundColor=none;fontColor=#333333;strokeColor=#030303;" parent="92" vertex="1">
                    <mxGeometry width="40" height="30" as="geometry"/>
                </mxCell>
                <mxCell id="94" value="updated_at" style="shape=partialRectangle;html=1;whiteSpace=wrap;connectable=0;fillColor=#f5f5f5;top=0;left=0;bottom=0;right=0;align=left;spacingLeft=6;overflow=hidden;labelBackgroundColor=none;fontColor=#333333;strokeColor=#030303;" parent="92" vertex="1">
                    <mxGeometry x="40" width="160" height="30" as="geometry"/>
                </mxCell>
                <mxCell id="118" value="order_menus" style="shape=table;startSize=30;container=1;collapsible=0;childLayout=tableLayout;fixedRows=1;rowLines=0;fontStyle=1;align=center;labelBackgroundColor=none;fillColor=#f5f5f5;fontColor=#333333;strokeColor=#030303;" parent="1" vertex="1">
                    <mxGeometry x="400" y="520" width="200" height="300" as="geometry"/>
                </mxCell>
                <mxCell id="119" value="" style="shape=partialRectangle;html=1;whiteSpace=wrap;collapsible=0;dropTarget=0;pointerEvents=0;fillColor=#f5f5f5;top=0;left=0;bottom=1;right=0;points=[[0,0.5],[1,0.5]];portConstraint=eastwest;labelBackgroundColor=none;fontColor=#333333;strokeColor=#030303;" parent="118" vertex="1">
                    <mxGeometry y="30" width="200" height="30" as="geometry"/>
                </mxCell>
                <mxCell id="120" value="PK" style="shape=partialRectangle;html=1;whiteSpace=wrap;connectable=0;fillColor=#f5f5f5;top=0;left=0;bottom=0;right=0;overflow=hidden;labelBackgroundColor=none;fontColor=#333333;strokeColor=#030303;" parent="119" vertex="1">
                    <mxGeometry width="40" height="30" as="geometry"/>
                </mxCell>
                <mxCell id="121" value="order_menu_id" style="shape=partialRectangle;html=1;whiteSpace=wrap;connectable=0;fillColor=#f5f5f5;top=0;left=0;bottom=0;right=0;align=left;spacingLeft=6;overflow=hidden;labelBackgroundColor=none;fontColor=#333333;strokeColor=#030303;" parent="119" vertex="1">
                    <mxGeometry x="40" width="160" height="30" as="geometry"/>
                </mxCell>
                <mxCell id="211" value="" style="shape=partialRectangle;html=1;whiteSpace=wrap;collapsible=0;dropTarget=0;pointerEvents=0;fillColor=#f5f5f5;top=0;left=0;bottom=0;right=0;points=[[0,0.5],[1,0.5]];portConstraint=eastwest;labelBackgroundColor=none;fontColor=#333333;strokeColor=#030303;" parent="118" vertex="1">
                    <mxGeometry y="60" width="200" height="30" as="geometry"/>
                </mxCell>
                <mxCell id="212" value="FK" style="shape=partialRectangle;html=1;whiteSpace=wrap;connectable=0;fillColor=#f5f5f5;top=0;left=0;bottom=0;right=0;overflow=hidden;labelBackgroundColor=none;fontColor=#333333;strokeColor=#030303;" parent="211" vertex="1">
                    <mxGeometry width="40" height="30" as="geometry"/>
                </mxCell>
                <mxCell id="213" value="order_id" style="shape=partialRectangle;html=1;whiteSpace=wrap;connectable=0;fillColor=#f5f5f5;top=0;left=0;bottom=0;right=0;align=left;spacingLeft=6;overflow=hidden;labelBackgroundColor=none;fontColor=#333333;strokeColor=#030303;" parent="211" vertex="1">
                    <mxGeometry x="40" width="160" height="30" as="geometry"/>
                </mxCell>
                <mxCell id="265" value="" style="shape=partialRectangle;html=1;whiteSpace=wrap;collapsible=0;dropTarget=0;pointerEvents=0;fillColor=#f5f5f5;top=0;left=0;bottom=0;right=0;points=[[0,0.5],[1,0.5]];portConstraint=eastwest;labelBackgroundColor=none;fontColor=#333333;strokeColor=#030303;" parent="118" vertex="1">
                    <mxGeometry y="90" width="200" height="30" as="geometry"/>
                </mxCell>
                <mxCell id="266" value="FK" style="shape=partialRectangle;html=1;whiteSpace=wrap;connectable=0;fillColor=#f5f5f5;top=0;left=0;bottom=0;right=0;overflow=hidden;labelBackgroundColor=none;fontColor=#333333;strokeColor=#030303;" parent="265" vertex="1">
                    <mxGeometry width="40" height="30" as="geometry"/>
                </mxCell>
                <mxCell id="267" value="product_id" style="shape=partialRectangle;html=1;whiteSpace=wrap;connectable=0;fillColor=#f5f5f5;top=0;left=0;bottom=0;right=0;align=left;spacingLeft=6;overflow=hidden;labelBackgroundColor=none;fontColor=#333333;strokeColor=#030303;" parent="265" vertex="1">
                    <mxGeometry x="40" width="160" height="30" as="geometry"/>
                </mxCell>
                <mxCell id="128" value="" style="shape=partialRectangle;html=1;whiteSpace=wrap;collapsible=0;dropTarget=0;pointerEvents=0;fillColor=#f5f5f5;top=0;left=0;bottom=0;right=0;points=[[0,0.5],[1,0.5]];portConstraint=eastwest;labelBackgroundColor=none;fontColor=#333333;strokeColor=#030303;" parent="118" vertex="1">
                    <mxGeometry y="120" width="200" height="30" as="geometry"/>
                </mxCell>
                <mxCell id="129" value="FK" style="shape=partialRectangle;html=1;whiteSpace=wrap;connectable=0;fillColor=#f5f5f5;top=0;left=0;bottom=0;right=0;overflow=hidden;labelBackgroundColor=none;fontColor=#333333;strokeColor=#030303;" parent="128" vertex="1">
                    <mxGeometry width="40" height="30" as="geometry"/>
                </mxCell>
                <mxCell id="130" value="ramen_id" style="shape=partialRectangle;html=1;whiteSpace=wrap;connectable=0;fillColor=#f5f5f5;top=0;left=0;bottom=0;right=0;align=left;spacingLeft=6;overflow=hidden;labelBackgroundColor=none;fontColor=#333333;strokeColor=#030303;" parent="128" vertex="1">
                    <mxGeometry x="40" width="160" height="30" as="geometry"/>
                </mxCell>
                <mxCell id="257" value="" style="shape=partialRectangle;html=1;whiteSpace=wrap;collapsible=0;dropTarget=0;pointerEvents=0;fillColor=#f5f5f5;top=0;left=0;bottom=0;right=0;points=[[0,0.5],[1,0.5]];portConstraint=eastwest;labelBackgroundColor=none;fontColor=#333333;strokeColor=#030303;" parent="118" vertex="1">
                    <mxGeometry y="150" width="200" height="30" as="geometry"/>
                </mxCell>
                <mxCell id="258" value="" style="shape=partialRectangle;html=1;whiteSpace=wrap;connectable=0;fillColor=#f5f5f5;top=0;left=0;bottom=0;right=0;overflow=hidden;labelBackgroundColor=none;fontColor=#333333;strokeColor=#030303;" parent="257" vertex="1">
                    <mxGeometry width="40" height="30" as="geometry"/>
                </mxCell>
                <mxCell id="259" value="quantity" style="shape=partialRectangle;html=1;whiteSpace=wrap;connectable=0;fillColor=#f5f5f5;top=0;left=0;bottom=0;right=0;align=left;spacingLeft=6;overflow=hidden;labelBackgroundColor=none;fontColor=#333333;strokeColor=#030303;" parent="257" vertex="1">
                    <mxGeometry x="40" width="160" height="30" as="geometry"/>
                </mxCell>
                <mxCell id="571" value="" style="shape=partialRectangle;html=1;whiteSpace=wrap;collapsible=0;dropTarget=0;pointerEvents=0;fillColor=#f5f5f5;top=0;left=0;bottom=0;right=0;points=[[0,0.5],[1,0.5]];portConstraint=eastwest;labelBackgroundColor=none;fontColor=#333333;strokeColor=#030303;" parent="118" vertex="1">
                    <mxGeometry y="180" width="200" height="30" as="geometry"/>
                </mxCell>
                <mxCell id="572" value="" style="shape=partialRectangle;html=1;whiteSpace=wrap;connectable=0;fillColor=#f5f5f5;top=0;left=0;bottom=0;right=0;overflow=hidden;labelBackgroundColor=none;fontColor=#333333;strokeColor=#030303;" parent="571" vertex="1">
                    <mxGeometry width="40" height="30" as="geometry"/>
                </mxCell>
                <mxCell id="573" value="comment" style="shape=partialRectangle;html=1;whiteSpace=wrap;connectable=0;fillColor=#f5f5f5;top=0;left=0;bottom=0;right=0;align=left;spacingLeft=6;overflow=hidden;labelBackgroundColor=none;fontColor=#333333;strokeColor=#030303;" parent="571" vertex="1">
                    <mxGeometry x="40" width="160" height="30" as="geometry"/>
                </mxCell>
                <mxCell id="131" value="" style="shape=partialRectangle;html=1;whiteSpace=wrap;collapsible=0;dropTarget=0;pointerEvents=0;fillColor=#f5f5f5;top=0;left=0;bottom=0;right=0;points=[[0,0.5],[1,0.5]];portConstraint=eastwest;labelBackgroundColor=none;fontColor=#333333;strokeColor=#030303;" parent="118" vertex="1">
                    <mxGeometry y="210" width="200" height="30" as="geometry"/>
                </mxCell>
                <mxCell id="132" value="" style="shape=partialRectangle;html=1;whiteSpace=wrap;connectable=0;fillColor=#f5f5f5;top=0;left=0;bottom=0;right=0;overflow=hidden;labelBackgroundColor=none;fontColor=#333333;strokeColor=#030303;" parent="131" vertex="1">
                    <mxGeometry width="40" height="30" as="geometry"/>
                </mxCell>
                <mxCell id="133" value="status" style="shape=partialRectangle;html=1;whiteSpace=wrap;connectable=0;fillColor=#f5f5f5;top=0;left=0;bottom=0;right=0;align=left;spacingLeft=6;overflow=hidden;labelBackgroundColor=none;fontColor=#333333;strokeColor=#030303;" parent="131" vertex="1">
                    <mxGeometry x="40" width="160" height="30" as="geometry"/>
                </mxCell>
                <mxCell id="137" value="" style="shape=partialRectangle;html=1;whiteSpace=wrap;collapsible=0;dropTarget=0;pointerEvents=0;fillColor=#f5f5f5;top=0;left=0;bottom=0;right=0;points=[[0,0.5],[1,0.5]];portConstraint=eastwest;labelBackgroundColor=none;fontColor=#333333;strokeColor=#030303;" parent="118" vertex="1">
                    <mxGeometry y="240" width="200" height="30" as="geometry"/>
                </mxCell>
                <mxCell id="138" value="" style="shape=partialRectangle;html=1;whiteSpace=wrap;connectable=0;fillColor=#f5f5f5;top=0;left=0;bottom=0;right=0;overflow=hidden;labelBackgroundColor=none;fontColor=#333333;strokeColor=#030303;" parent="137" vertex="1">
                    <mxGeometry width="40" height="30" as="geometry"/>
                </mxCell>
                <mxCell id="139" value="created_at" style="shape=partialRectangle;html=1;whiteSpace=wrap;connectable=0;fillColor=#f5f5f5;top=0;left=0;bottom=0;right=0;align=left;spacingLeft=6;overflow=hidden;labelBackgroundColor=none;fontColor=#333333;strokeColor=#030303;" parent="137" vertex="1">
                    <mxGeometry x="40" width="160" height="30" as="geometry"/>
                </mxCell>
                <mxCell id="134" value="" style="shape=partialRectangle;html=1;whiteSpace=wrap;collapsible=0;dropTarget=0;pointerEvents=0;fillColor=#f5f5f5;top=0;left=0;bottom=0;right=0;points=[[0,0.5],[1,0.5]];portConstraint=eastwest;labelBackgroundColor=none;fontColor=#333333;strokeColor=#030303;" parent="118" vertex="1">
                    <mxGeometry y="270" width="200" height="30" as="geometry"/>
                </mxCell>
                <mxCell id="135" value="" style="shape=partialRectangle;html=1;whiteSpace=wrap;connectable=0;fillColor=#f5f5f5;top=0;left=0;bottom=0;right=0;overflow=hidden;labelBackgroundColor=none;fontColor=#333333;strokeColor=#030303;" parent="134" vertex="1">
                    <mxGeometry width="40" height="30" as="geometry"/>
                </mxCell>
                <mxCell id="136" value="updated_at" style="shape=partialRectangle;html=1;whiteSpace=wrap;connectable=0;fillColor=#f5f5f5;top=0;left=0;bottom=0;right=0;align=left;spacingLeft=6;overflow=hidden;labelBackgroundColor=none;fontColor=#333333;strokeColor=#030303;" parent="134" vertex="1">
                    <mxGeometry x="40" width="160" height="30" as="geometry"/>
                </mxCell>
                <mxCell id="143" value="custom_ramens" style="shape=table;startSize=30;container=1;collapsible=0;childLayout=tableLayout;fixedRows=1;rowLines=0;fontStyle=1;align=center;labelBackgroundColor=none;fillColor=#f5f5f5;fontColor=#333333;strokeColor=#030303;" parent="1" vertex="1">
                    <mxGeometry x="680" y="380" width="200" height="150" as="geometry"/>
                </mxCell>
                <mxCell id="144" value="" style="shape=partialRectangle;html=1;whiteSpace=wrap;collapsible=0;dropTarget=0;pointerEvents=0;fillColor=#f5f5f5;top=0;left=0;bottom=1;right=0;points=[[0,0.5],[1,0.5]];portConstraint=eastwest;labelBackgroundColor=none;fontColor=#333333;strokeColor=#030303;" parent="143" vertex="1">
                    <mxGeometry y="30" width="200" height="30" as="geometry"/>
                </mxCell>
                <mxCell id="145" value="PK" style="shape=partialRectangle;html=1;whiteSpace=wrap;connectable=0;fillColor=#f5f5f5;top=0;left=0;bottom=0;right=0;overflow=hidden;labelBackgroundColor=none;fontColor=#333333;strokeColor=#030303;" parent="144" vertex="1">
                    <mxGeometry width="40" height="30" as="geometry"/>
                </mxCell>
                <mxCell id="146" value="ramen_id" style="shape=partialRectangle;html=1;whiteSpace=wrap;connectable=0;fillColor=#f5f5f5;top=0;left=0;bottom=0;right=0;align=left;spacingLeft=6;overflow=hidden;labelBackgroundColor=none;fontColor=#333333;strokeColor=#030303;" parent="144" vertex="1">
                    <mxGeometry x="40" width="160" height="30" as="geometry"/>
                </mxCell>
                <mxCell id="254" value="" style="shape=partialRectangle;html=1;whiteSpace=wrap;collapsible=0;dropTarget=0;pointerEvents=0;fillColor=#f5f5f5;top=0;left=0;bottom=0;right=0;points=[[0,0.5],[1,0.5]];portConstraint=eastwest;labelBackgroundColor=none;fontColor=#333333;strokeColor=#030303;" parent="143" vertex="1">
                    <mxGeometry y="60" width="200" height="30" as="geometry"/>
                </mxCell>
                <mxCell id="255" value="" style="shape=partialRectangle;html=1;whiteSpace=wrap;connectable=0;fillColor=#f5f5f5;top=0;left=0;bottom=0;right=0;overflow=hidden;labelBackgroundColor=none;fontColor=#333333;strokeColor=#030303;" parent="254" vertex="1">
                    <mxGeometry width="40" height="30" as="geometry"/>
                </mxCell>
                <mxCell id="256" value="status" style="shape=partialRectangle;html=1;whiteSpace=wrap;connectable=0;fillColor=#f5f5f5;top=0;left=0;bottom=0;right=0;align=left;spacingLeft=6;overflow=hidden;labelBackgroundColor=none;fontColor=#333333;strokeColor=#030303;" parent="254" vertex="1">
                    <mxGeometry x="40" width="160" height="30" as="geometry"/>
                </mxCell>
                <mxCell id="159" value="" style="shape=partialRectangle;html=1;whiteSpace=wrap;collapsible=0;dropTarget=0;pointerEvents=0;fillColor=#f5f5f5;top=0;left=0;bottom=0;right=0;points=[[0,0.5],[1,0.5]];portConstraint=eastwest;labelBackgroundColor=none;fontColor=#333333;strokeColor=#030303;" parent="143" vertex="1">
                    <mxGeometry y="90" width="200" height="30" as="geometry"/>
                </mxCell>
                <mxCell id="160" value="" style="shape=partialRectangle;html=1;whiteSpace=wrap;connectable=0;fillColor=#f5f5f5;top=0;left=0;bottom=0;right=0;overflow=hidden;labelBackgroundColor=none;fontColor=#333333;strokeColor=#030303;" parent="159" vertex="1">
                    <mxGeometry width="40" height="30" as="geometry"/>
                </mxCell>
                <mxCell id="161" value="created_at" style="shape=partialRectangle;html=1;whiteSpace=wrap;connectable=0;fillColor=#f5f5f5;top=0;left=0;bottom=0;right=0;align=left;spacingLeft=6;overflow=hidden;labelBackgroundColor=none;fontColor=#333333;strokeColor=#030303;" parent="159" vertex="1">
                    <mxGeometry x="40" width="160" height="30" as="geometry"/>
                </mxCell>
                <mxCell id="156" value="" style="shape=partialRectangle;html=1;whiteSpace=wrap;collapsible=0;dropTarget=0;pointerEvents=0;fillColor=#f5f5f5;top=0;left=0;bottom=0;right=0;points=[[0,0.5],[1,0.5]];portConstraint=eastwest;labelBackgroundColor=none;fontColor=#333333;strokeColor=#030303;" parent="143" vertex="1">
                    <mxGeometry y="120" width="200" height="30" as="geometry"/>
                </mxCell>
                <mxCell id="157" value="" style="shape=partialRectangle;html=1;whiteSpace=wrap;connectable=0;fillColor=#f5f5f5;top=0;left=0;bottom=0;right=0;overflow=hidden;labelBackgroundColor=none;fontColor=#333333;strokeColor=#030303;" parent="156" vertex="1">
                    <mxGeometry width="40" height="30" as="geometry"/>
                </mxCell>
                <mxCell id="158" value="updated_at" style="shape=partialRectangle;html=1;whiteSpace=wrap;connectable=0;fillColor=#f5f5f5;top=0;left=0;bottom=0;right=0;align=left;spacingLeft=6;overflow=hidden;labelBackgroundColor=none;fontColor=#333333;strokeColor=#030303;" parent="156" vertex="1">
                    <mxGeometry x="40" width="160" height="30" as="geometry"/>
                </mxCell>
                <mxCell id="176" value="main_menus" style="shape=table;startSize=30;container=1;collapsible=0;childLayout=tableLayout;fixedRows=1;rowLines=0;fontStyle=1;align=center;labelBackgroundColor=none;fillColor=#f5f5f5;fontColor=#333333;strokeColor=#030303;" parent="1" vertex="1">
                    <mxGeometry x="680" y="150" width="200" height="210" as="geometry"/>
                </mxCell>
                <mxCell id="177" value="" style="shape=partialRectangle;html=1;whiteSpace=wrap;collapsible=0;dropTarget=0;pointerEvents=0;fillColor=#f5f5f5;top=0;left=0;bottom=1;right=0;points=[[0,0.5],[1,0.5]];portConstraint=eastwest;labelBackgroundColor=none;fontColor=#333333;strokeColor=#030303;" parent="176" vertex="1">
                    <mxGeometry y="30" width="200" height="30" as="geometry"/>
                </mxCell>
                <mxCell id="178" value="PK" style="shape=partialRectangle;html=1;whiteSpace=wrap;connectable=0;fillColor=#f5f5f5;top=0;left=0;bottom=0;right=0;overflow=hidden;labelBackgroundColor=none;fontColor=#333333;strokeColor=#030303;" parent="177" vertex="1">
                    <mxGeometry width="40" height="30" as="geometry"/>
                </mxCell>
                <mxCell id="179" value="product_id" style="shape=partialRectangle;html=1;whiteSpace=wrap;connectable=0;fillColor=#f5f5f5;top=0;left=0;bottom=0;right=0;align=left;spacingLeft=6;overflow=hidden;labelBackgroundColor=none;fontColor=#333333;strokeColor=#030303;" parent="177" vertex="1">
                    <mxGeometry x="40" width="160" height="30" as="geometry"/>
                </mxCell>
                <mxCell id="186" value="" style="shape=partialRectangle;html=1;whiteSpace=wrap;collapsible=0;dropTarget=0;pointerEvents=0;fillColor=#f5f5f5;top=0;left=0;bottom=0;right=0;points=[[0,0.5],[1,0.5]];portConstraint=eastwest;labelBackgroundColor=none;fontColor=#333333;strokeColor=#030303;" parent="176" vertex="1">
                    <mxGeometry y="60" width="200" height="30" as="geometry"/>
                </mxCell>
                <mxCell id="187" value="" style="shape=partialRectangle;html=1;whiteSpace=wrap;connectable=0;fillColor=#f5f5f5;top=0;left=0;bottom=0;right=0;overflow=hidden;labelBackgroundColor=none;fontColor=#333333;strokeColor=#030303;" parent="186" vertex="1">
                    <mxGeometry width="40" height="30" as="geometry"/>
                </mxCell>
                <mxCell id="188" value="image_url" style="shape=partialRectangle;html=1;whiteSpace=wrap;connectable=0;fillColor=#f5f5f5;top=0;left=0;bottom=0;right=0;align=left;spacingLeft=6;overflow=hidden;labelBackgroundColor=none;fontColor=#333333;strokeColor=#030303;" parent="186" vertex="1">
                    <mxGeometry x="40" width="160" height="30" as="geometry"/>
                </mxCell>
                <mxCell id="189" value="" style="shape=partialRectangle;html=1;whiteSpace=wrap;collapsible=0;dropTarget=0;pointerEvents=0;fillColor=#f5f5f5;top=0;left=0;bottom=0;right=0;points=[[0,0.5],[1,0.5]];portConstraint=eastwest;labelBackgroundColor=none;fontColor=#333333;strokeColor=#030303;" parent="176" vertex="1">
                    <mxGeometry y="90" width="200" height="30" as="geometry"/>
                </mxCell>
                <mxCell id="190" value="" style="shape=partialRectangle;html=1;whiteSpace=wrap;connectable=0;fillColor=#f5f5f5;top=0;left=0;bottom=0;right=0;overflow=hidden;labelBackgroundColor=none;fontColor=#333333;strokeColor=#030303;" parent="189" vertex="1">
                    <mxGeometry width="40" height="30" as="geometry"/>
                </mxCell>
                <mxCell id="191" value="price" style="shape=partialRectangle;html=1;whiteSpace=wrap;connectable=0;fillColor=#f5f5f5;top=0;left=0;bottom=0;right=0;align=left;spacingLeft=6;overflow=hidden;labelBackgroundColor=none;fontColor=#333333;strokeColor=#030303;" parent="189" vertex="1">
                    <mxGeometry x="40" width="160" height="30" as="geometry"/>
                </mxCell>
                <mxCell id="195" value="" style="shape=partialRectangle;html=1;whiteSpace=wrap;collapsible=0;dropTarget=0;pointerEvents=0;fillColor=#f5f5f5;top=0;left=0;bottom=0;right=0;points=[[0,0.5],[1,0.5]];portConstraint=eastwest;labelBackgroundColor=none;fontColor=#333333;strokeColor=#030303;" parent="176" vertex="1">
                    <mxGeometry y="120" width="200" height="30" as="geometry"/>
                </mxCell>
                <mxCell id="196" value="" style="shape=partialRectangle;html=1;whiteSpace=wrap;connectable=0;fillColor=#f5f5f5;top=0;left=0;bottom=0;right=0;overflow=hidden;labelBackgroundColor=none;fontColor=#333333;strokeColor=#030303;" parent="195" vertex="1">
                    <mxGeometry width="40" height="30" as="geometry"/>
                </mxCell>
                <mxCell id="197" value="status" style="shape=partialRectangle;html=1;whiteSpace=wrap;connectable=0;fillColor=#f5f5f5;top=0;left=0;bottom=0;right=0;align=left;spacingLeft=6;overflow=hidden;labelBackgroundColor=none;fontColor=#333333;strokeColor=#030303;" parent="195" vertex="1">
                    <mxGeometry x="40" width="160" height="30" as="geometry"/>
                </mxCell>
                <mxCell id="201" value="" style="shape=partialRectangle;html=1;whiteSpace=wrap;collapsible=0;dropTarget=0;pointerEvents=0;fillColor=#f5f5f5;top=0;left=0;bottom=0;right=0;points=[[0,0.5],[1,0.5]];portConstraint=eastwest;labelBackgroundColor=none;fontColor=#333333;strokeColor=#030303;" parent="176" vertex="1">
                    <mxGeometry y="150" width="200" height="30" as="geometry"/>
                </mxCell>
                <mxCell id="202" value="" style="shape=partialRectangle;html=1;whiteSpace=wrap;connectable=0;fillColor=#f5f5f5;top=0;left=0;bottom=0;right=0;overflow=hidden;labelBackgroundColor=none;fontColor=#333333;strokeColor=#030303;" parent="201" vertex="1">
                    <mxGeometry width="40" height="30" as="geometry"/>
                </mxCell>
                <mxCell id="203" value="created_at" style="shape=partialRectangle;html=1;whiteSpace=wrap;connectable=0;fillColor=#f5f5f5;top=0;left=0;bottom=0;right=0;align=left;spacingLeft=6;overflow=hidden;labelBackgroundColor=none;fontColor=#333333;strokeColor=#030303;" parent="201" vertex="1">
                    <mxGeometry x="40" width="160" height="30" as="geometry"/>
                </mxCell>
                <mxCell id="198" value="" style="shape=partialRectangle;html=1;whiteSpace=wrap;collapsible=0;dropTarget=0;pointerEvents=0;fillColor=#f5f5f5;top=0;left=0;bottom=0;right=0;points=[[0,0.5],[1,0.5]];portConstraint=eastwest;labelBackgroundColor=none;fontColor=#333333;strokeColor=#030303;" parent="176" vertex="1">
                    <mxGeometry y="180" width="200" height="30" as="geometry"/>
                </mxCell>
                <mxCell id="199" value="" style="shape=partialRectangle;html=1;whiteSpace=wrap;connectable=0;fillColor=#f5f5f5;top=0;left=0;bottom=0;right=0;overflow=hidden;labelBackgroundColor=none;fontColor=#333333;strokeColor=#030303;" parent="198" vertex="1">
                    <mxGeometry width="40" height="30" as="geometry"/>
                </mxCell>
                <mxCell id="200" value="updated_at" style="shape=partialRectangle;html=1;whiteSpace=wrap;connectable=0;fillColor=#f5f5f5;top=0;left=0;bottom=0;right=0;align=left;spacingLeft=6;overflow=hidden;labelBackgroundColor=none;fontColor=#333333;strokeColor=#030303;" parent="198" vertex="1">
                    <mxGeometry x="40" width="160" height="30" as="geometry"/>
                </mxCell>
                <mxCell id="263" style="edgeStyle=orthogonalEdgeStyle;rounded=0;orthogonalLoop=1;jettySize=auto;html=1;entryX=0;entryY=0.5;entryDx=0;entryDy=0;endArrow=ERone;endFill=0;startArrow=ERzeroToMany;startFill=1;labelBackgroundColor=none;fillColor=#f5f5f5;fontColor=#000000;strokeColor=#030303;" parent="1" source="47" target="3" edge="1">
                    <mxGeometry relative="1" as="geometry"/>
                </mxCell>
                <mxCell id="268" style="edgeStyle=orthogonalEdgeStyle;rounded=0;orthogonalLoop=1;jettySize=auto;html=1;entryX=1;entryY=0.5;entryDx=0;entryDy=0;exitX=1;exitY=0.5;exitDx=0;exitDy=0;endArrow=ERone;endFill=0;startArrow=ERoneToMany;startFill=0;labelBackgroundColor=none;fillColor=#f5f5f5;fontColor=#000000;strokeColor=#030303;" parent="1" source="211" target="77" edge="1">
                    <mxGeometry relative="1" as="geometry"/>
                </mxCell>
                <mxCell id="269" style="edgeStyle=orthogonalEdgeStyle;rounded=0;orthogonalLoop=1;jettySize=auto;html=1;entryX=0;entryY=0.5;entryDx=0;entryDy=0;endArrow=ERzeroToMany;endFill=1;startArrow=ERone;startFill=0;labelBackgroundColor=none;fillColor=#f5f5f5;fontColor=#000000;strokeColor=#030303;" parent="1" source="265" target="177" edge="1">
                    <mxGeometry relative="1" as="geometry"/>
                </mxCell>
                <mxCell id="270" style="edgeStyle=orthogonalEdgeStyle;rounded=0;orthogonalLoop=1;jettySize=auto;html=1;entryX=0;entryY=0.5;entryDx=0;entryDy=0;endArrow=ERzeroToMany;endFill=1;startArrow=ERone;startFill=0;exitX=1;exitY=0.5;exitDx=0;exitDy=0;labelBackgroundColor=none;fillColor=#f5f5f5;fontColor=#000000;strokeColor=#030303;" parent="1" source="128" target="144" edge="1">
                    <mxGeometry relative="1" as="geometry">
                        <Array as="points">
                            <mxPoint x="660" y="655"/>
                            <mxPoint x="660" y="425"/>
                        </Array>
                        <mxPoint x="520" y="700" as="sourcePoint"/>
                    </mxGeometry>
                </mxCell>
                <mxCell id="324" value="custom_ramen_details" style="shape=table;startSize=30;container=1;collapsible=0;childLayout=tableLayout;fixedRows=1;rowLines=0;fontStyle=1;align=center;labelBackgroundColor=none;fillColor=#f5f5f5;fontColor=#333333;strokeColor=#030303;" parent="1" vertex="1">
                    <mxGeometry x="680" y="550" width="200" height="180" as="geometry"/>
                </mxCell>
                <mxCell id="328" value="" style="shape=partialRectangle;html=1;whiteSpace=wrap;collapsible=0;dropTarget=0;pointerEvents=0;fillColor=#f5f5f5;top=0;left=0;bottom=0;right=0;points=[[0,0.5],[1,0.5]];portConstraint=eastwest;labelBackgroundColor=none;fontColor=#333333;strokeColor=#030303;" parent="324" vertex="1">
                    <mxGeometry y="30" width="200" height="30" as="geometry"/>
                </mxCell>
                <mxCell id="329" value="PK,FK" style="shape=partialRectangle;html=1;whiteSpace=wrap;connectable=0;fillColor=#f5f5f5;top=0;left=0;bottom=0;right=0;overflow=hidden;labelBackgroundColor=none;fontColor=#333333;strokeColor=#030303;" parent="328" vertex="1">
                    <mxGeometry width="40" height="30" as="geometry"/>
                </mxCell>
                <mxCell id="330" value="ramen_id" style="shape=partialRectangle;html=1;whiteSpace=wrap;connectable=0;fillColor=#f5f5f5;top=0;left=0;bottom=0;right=0;align=left;spacingLeft=6;overflow=hidden;labelBackgroundColor=none;fontColor=#333333;strokeColor=#030303;" parent="328" vertex="1">
                    <mxGeometry x="40" width="160" height="30" as="geometry"/>
                </mxCell>
                <mxCell id="325" value="" style="shape=partialRectangle;html=1;whiteSpace=wrap;collapsible=0;dropTarget=0;pointerEvents=0;fillColor=#f5f5f5;top=0;left=0;bottom=1;right=0;points=[[0,0.5],[1,0.5]];portConstraint=eastwest;labelBackgroundColor=none;fontColor=#333333;strokeColor=#030303;" parent="324" vertex="1">
                    <mxGeometry y="60" width="200" height="30" as="geometry"/>
                </mxCell>
                <mxCell id="326" value="PK,FK" style="shape=partialRectangle;html=1;whiteSpace=wrap;connectable=0;fillColor=#f5f5f5;top=0;left=0;bottom=0;right=0;overflow=hidden;labelBackgroundColor=none;fontColor=#333333;strokeColor=#030303;" parent="325" vertex="1">
                    <mxGeometry width="40" height="30" as="geometry"/>
                </mxCell>
                <mxCell id="327" value="choice_id" style="shape=partialRectangle;html=1;whiteSpace=wrap;connectable=0;fillColor=#f5f5f5;top=0;left=0;bottom=0;right=0;align=left;spacingLeft=6;overflow=hidden;labelBackgroundColor=none;fontColor=#333333;strokeColor=#030303;" parent="325" vertex="1">
                    <mxGeometry x="40" width="160" height="30" as="geometry"/>
                </mxCell>
                <mxCell id="388" value="" style="shape=partialRectangle;html=1;whiteSpace=wrap;collapsible=0;dropTarget=0;pointerEvents=0;fillColor=#f5f5f5;top=0;left=0;bottom=0;right=0;points=[[0,0.5],[1,0.5]];portConstraint=eastwest;labelBackgroundColor=none;fontColor=#333333;strokeColor=#030303;" parent="324" vertex="1">
                    <mxGeometry y="90" width="200" height="30" as="geometry"/>
                </mxCell>
                <mxCell id="389" value="" style="shape=partialRectangle;html=1;whiteSpace=wrap;connectable=0;fillColor=#f5f5f5;top=0;left=0;bottom=0;right=0;overflow=hidden;labelBackgroundColor=none;fontColor=#333333;strokeColor=#030303;" parent="388" vertex="1">
                    <mxGeometry width="40" height="30" as="geometry"/>
                </mxCell>
                <mxCell id="390" value="status" style="shape=partialRectangle;html=1;whiteSpace=wrap;connectable=0;fillColor=#f5f5f5;top=0;left=0;bottom=0;right=0;align=left;spacingLeft=6;overflow=hidden;labelBackgroundColor=none;fontColor=#333333;strokeColor=#030303;" parent="388" vertex="1">
                    <mxGeometry x="40" width="160" height="30" as="geometry"/>
                </mxCell>
                <mxCell id="358" value="" style="shape=partialRectangle;html=1;whiteSpace=wrap;collapsible=0;dropTarget=0;pointerEvents=0;fillColor=#f5f5f5;top=0;left=0;bottom=0;right=0;points=[[0,0.5],[1,0.5]];portConstraint=eastwest;labelBackgroundColor=none;fontColor=#333333;strokeColor=#030303;" parent="324" vertex="1">
                    <mxGeometry y="120" width="200" height="30" as="geometry"/>
                </mxCell>
                <mxCell id="359" value="" style="shape=partialRectangle;html=1;whiteSpace=wrap;connectable=0;fillColor=#f5f5f5;top=0;left=0;bottom=0;right=0;overflow=hidden;labelBackgroundColor=none;fontColor=#333333;strokeColor=#030303;" parent="358" vertex="1">
                    <mxGeometry width="40" height="30" as="geometry"/>
                </mxCell>
                <mxCell id="360" value="created_at" style="shape=partialRectangle;html=1;whiteSpace=wrap;connectable=0;fillColor=#f5f5f5;top=0;left=0;bottom=0;right=0;align=left;spacingLeft=6;overflow=hidden;labelBackgroundColor=none;fontColor=#333333;strokeColor=#030303;" parent="358" vertex="1">
                    <mxGeometry x="40" width="160" height="30" as="geometry"/>
                </mxCell>
                <mxCell id="352" value="" style="shape=partialRectangle;html=1;whiteSpace=wrap;collapsible=0;dropTarget=0;pointerEvents=0;fillColor=#f5f5f5;top=0;left=0;bottom=0;right=0;points=[[0,0.5],[1,0.5]];portConstraint=eastwest;labelBackgroundColor=none;fontColor=#333333;strokeColor=#030303;" parent="324" vertex="1">
                    <mxGeometry y="150" width="200" height="30" as="geometry"/>
                </mxCell>
                <mxCell id="353" value="" style="shape=partialRectangle;html=1;whiteSpace=wrap;connectable=0;fillColor=#f5f5f5;top=0;left=0;bottom=0;right=0;overflow=hidden;labelBackgroundColor=none;fontColor=#333333;strokeColor=#030303;" parent="352" vertex="1">
                    <mxGeometry width="40" height="30" as="geometry"/>
                </mxCell>
                <mxCell id="354" value="updated_at" style="shape=partialRectangle;html=1;whiteSpace=wrap;connectable=0;fillColor=#f5f5f5;top=0;left=0;bottom=0;right=0;align=left;spacingLeft=6;overflow=hidden;labelBackgroundColor=none;fontColor=#333333;strokeColor=#030303;" parent="352" vertex="1">
                    <mxGeometry x="40" width="160" height="30" as="geometry"/>
                </mxCell>
                <mxCell id="387" style="edgeStyle=orthogonalEdgeStyle;rounded=0;orthogonalLoop=1;jettySize=auto;html=1;endArrow=ERoneToMany;endFill=0;startArrow=ERone;startFill=0;exitX=1;exitY=0.5;exitDx=0;exitDy=0;entryX=1;entryY=0.5;entryDx=0;entryDy=0;labelBackgroundColor=none;fillColor=#f5f5f5;fontColor=#000000;strokeColor=#030303;" parent="1" source="325" target="22" edge="1">
                    <mxGeometry relative="1" as="geometry">
                        <Array as="points">
                            <mxPoint x="900" y="625"/>
                            <mxPoint x="900" y="795"/>
                        </Array>
                        <mxPoint x="970" y="780" as="targetPoint"/>
                    </mxGeometry>
                </mxCell>
                <mxCell id="391" style="edgeStyle=orthogonalEdgeStyle;rounded=0;orthogonalLoop=1;jettySize=auto;html=1;entryX=1;entryY=0.5;entryDx=0;entryDy=0;endArrow=ERoneToMany;endFill=0;startArrow=ERone;startFill=0;labelBackgroundColor=none;fillColor=#f5f5f5;fontColor=#000000;strokeColor=#030303;" parent="1" source="144" target="328" edge="1">
                    <mxGeometry relative="1" as="geometry">
                        <Array as="points">
                            <mxPoint x="900" y="425"/>
                            <mxPoint x="900" y="595"/>
                        </Array>
                    </mxGeometry>
                </mxCell>
                <mxCell id="471" style="edgeStyle=orthogonalEdgeStyle;rounded=0;orthogonalLoop=1;jettySize=auto;html=1;entryX=1;entryY=0.5;entryDx=0;entryDy=0;endArrow=ERoneToMany;endFill=0;startArrow=ERone;startFill=0;exitX=1;exitY=0.5;exitDx=0;exitDy=0;labelBackgroundColor=none;fillColor=#f5f5f5;fontColor=#000000;strokeColor=#030303;" parent="1" source="177" target="525" edge="1">
                    <mxGeometry relative="1" as="geometry">
                        <mxPoint x="960" y="260" as="sourcePoint"/>
                        <mxPoint x="1210" y="-140" as="targetPoint"/>
                    </mxGeometry>
                </mxCell>
                <mxCell id="489" style="edgeStyle=orthogonalEdgeStyle;rounded=0;orthogonalLoop=1;jettySize=auto;html=1;entryX=1;entryY=0.5;entryDx=0;entryDy=0;startArrow=ERone;startFill=0;endArrow=ERoneToMany;endFill=0;exitX=0;exitY=0.5;exitDx=0;exitDy=0;labelBackgroundColor=none;fillColor=#f5f5f5;fontColor=#000000;strokeColor=#030303;" parent="1" source="22" target="544" edge="1">
                    <mxGeometry relative="1" as="geometry">
                        <mxPoint x="880" y="855" as="sourcePoint"/>
                        <Array as="points">
                            <mxPoint x="640" y="795"/>
                            <mxPoint x="640" y="885"/>
                        </Array>
                    </mxGeometry>
                </mxCell>
                <mxCell id="524" value="info_main_menus" style="shape=table;startSize=30;container=1;collapsible=0;childLayout=tableLayout;fixedRows=1;rowLines=0;fontStyle=1;align=center;labelBackgroundColor=none;fillColor=#f5f5f5;fontColor=#333333;strokeColor=#030303;" parent="1" vertex="1">
                    <mxGeometry x="400" y="30" width="200" height="270" as="geometry"/>
                </mxCell>
                <mxCell id="525" value="" style="shape=partialRectangle;html=1;whiteSpace=wrap;collapsible=0;dropTarget=0;pointerEvents=0;fillColor=#f5f5f5;top=0;left=0;bottom=0;right=0;points=[[0,0.5],[1,0.5]];portConstraint=eastwest;labelBackgroundColor=none;fontColor=#333333;strokeColor=#030303;" parent="524" vertex="1">
                    <mxGeometry y="30" width="200" height="30" as="geometry"/>
                </mxCell>
                <mxCell id="526" value="PK,FK" style="shape=partialRectangle;html=1;whiteSpace=wrap;connectable=0;fillColor=#f5f5f5;top=0;left=0;bottom=0;right=0;overflow=hidden;labelBackgroundColor=none;fontColor=#333333;strokeColor=#030303;" parent="525" vertex="1">
                    <mxGeometry width="40" height="30" as="geometry"/>
                </mxCell>
                <mxCell id="527" value="product_id" style="shape=partialRectangle;html=1;whiteSpace=wrap;connectable=0;fillColor=#f5f5f5;top=0;left=0;bottom=0;right=0;align=left;spacingLeft=6;overflow=hidden;labelBackgroundColor=none;fontColor=#333333;strokeColor=#030303;" parent="525" vertex="1">
                    <mxGeometry x="40" width="160" height="30" as="geometry"/>
                </mxCell>
                <mxCell id="528" value="" style="shape=partialRectangle;html=1;whiteSpace=wrap;collapsible=0;dropTarget=0;pointerEvents=0;fillColor=#f5f5f5;top=0;left=0;bottom=1;right=0;points=[[0,0.5],[1,0.5]];portConstraint=eastwest;labelBackgroundColor=none;fontColor=#333333;strokeColor=#030303;" parent="524" vertex="1">
                    <mxGeometry y="60" width="200" height="30" as="geometry"/>
                </mxCell>
                <mxCell id="529" value="PK" style="shape=partialRectangle;html=1;whiteSpace=wrap;connectable=0;fillColor=#f5f5f5;top=0;left=0;bottom=0;right=0;overflow=hidden;labelBackgroundColor=none;fontColor=#333333;strokeColor=#030303;" parent="528" vertex="1">
                    <mxGeometry width="40" height="30" as="geometry"/>
                </mxCell>
                <mxCell id="530" value="language" style="shape=partialRectangle;html=1;whiteSpace=wrap;connectable=0;fillColor=#f5f5f5;top=0;left=0;bottom=0;right=0;align=left;spacingLeft=6;overflow=hidden;labelBackgroundColor=none;fontColor=#333333;strokeColor=#030303;" parent="528" vertex="1">
                    <mxGeometry x="40" width="160" height="30" as="geometry"/>
                </mxCell>
                <mxCell id="459" value="" style="shape=partialRectangle;html=1;whiteSpace=wrap;collapsible=0;dropTarget=0;pointerEvents=0;fillColor=#f5f5f5;top=0;left=0;bottom=0;right=0;points=[[0,0.5],[1,0.5]];portConstraint=eastwest;labelBackgroundColor=none;fontColor=#333333;strokeColor=#030303;" parent="524" vertex="1">
                    <mxGeometry y="90" width="200" height="30" as="geometry"/>
                </mxCell>
                <mxCell id="460" value="" style="shape=partialRectangle;html=1;whiteSpace=wrap;connectable=0;fillColor=#f5f5f5;top=0;left=0;bottom=0;right=0;overflow=hidden;labelBackgroundColor=none;fontColor=#333333;strokeColor=#030303;" parent="459" vertex="1">
                    <mxGeometry width="40" height="30" as="geometry"/>
                </mxCell>
                <mxCell id="461" value="name" style="shape=partialRectangle;html=1;whiteSpace=wrap;connectable=0;fillColor=#f5f5f5;top=0;left=0;bottom=0;right=0;align=left;spacingLeft=6;overflow=hidden;labelBackgroundColor=none;fontColor=#333333;strokeColor=#030303;" parent="459" vertex="1">
                    <mxGeometry x="40" width="160" height="30" as="geometry"/>
                </mxCell>
                <mxCell id="462" value="" style="shape=partialRectangle;html=1;whiteSpace=wrap;collapsible=0;dropTarget=0;pointerEvents=0;fillColor=#f5f5f5;top=0;left=0;bottom=0;right=0;points=[[0,0.5],[1,0.5]];portConstraint=eastwest;labelBackgroundColor=none;fontColor=#333333;strokeColor=#030303;" parent="524" vertex="1">
                    <mxGeometry y="120" width="200" height="30" as="geometry"/>
                </mxCell>
                <mxCell id="463" value="" style="shape=partialRectangle;html=1;whiteSpace=wrap;connectable=0;fillColor=#f5f5f5;top=0;left=0;bottom=0;right=0;overflow=hidden;labelBackgroundColor=none;fontColor=#333333;strokeColor=#030303;" parent="462" vertex="1">
                    <mxGeometry width="40" height="30" as="geometry"/>
                </mxCell>
                <mxCell id="464" value="category" style="shape=partialRectangle;html=1;whiteSpace=wrap;connectable=0;fillColor=#f5f5f5;top=0;left=0;bottom=0;right=0;align=left;spacingLeft=6;overflow=hidden;labelBackgroundColor=none;fontColor=#333333;strokeColor=#030303;" parent="462" vertex="1">
                    <mxGeometry x="40" width="160" height="30" as="geometry"/>
                </mxCell>
                <mxCell id="465" value="" style="shape=partialRectangle;html=1;whiteSpace=wrap;collapsible=0;dropTarget=0;pointerEvents=0;fillColor=#f5f5f5;top=0;left=0;bottom=0;right=0;points=[[0,0.5],[1,0.5]];portConstraint=eastwest;labelBackgroundColor=none;fontColor=#333333;strokeColor=#030303;" parent="524" vertex="1">
                    <mxGeometry y="150" width="200" height="30" as="geometry"/>
                </mxCell>
                <mxCell id="466" value="" style="shape=partialRectangle;html=1;whiteSpace=wrap;connectable=0;fillColor=#f5f5f5;top=0;left=0;bottom=0;right=0;overflow=hidden;labelBackgroundColor=none;fontColor=#333333;strokeColor=#030303;" parent="465" vertex="1">
                    <mxGeometry width="40" height="30" as="geometry"/>
                </mxCell>
                <mxCell id="467" value="description" style="shape=partialRectangle;html=1;whiteSpace=wrap;connectable=0;fillColor=#f5f5f5;top=0;left=0;bottom=0;right=0;align=left;spacingLeft=6;overflow=hidden;labelBackgroundColor=none;fontColor=#333333;strokeColor=#030303;" parent="465" vertex="1">
                    <mxGeometry x="40" width="160" height="30" as="geometry"/>
                </mxCell>
                <mxCell id="534" value="" style="shape=partialRectangle;html=1;whiteSpace=wrap;collapsible=0;dropTarget=0;pointerEvents=0;fillColor=#f5f5f5;top=0;left=0;bottom=0;right=0;points=[[0,0.5],[1,0.5]];portConstraint=eastwest;labelBackgroundColor=none;fontColor=#333333;strokeColor=#030303;" parent="524" vertex="1">
                    <mxGeometry y="180" width="200" height="30" as="geometry"/>
                </mxCell>
                <mxCell id="535" value="" style="shape=partialRectangle;html=1;whiteSpace=wrap;connectable=0;fillColor=#f5f5f5;top=0;left=0;bottom=0;right=0;overflow=hidden;labelBackgroundColor=none;fontColor=#333333;strokeColor=#030303;" parent="534" vertex="1">
                    <mxGeometry width="40" height="30" as="geometry"/>
                </mxCell>
                <mxCell id="536" value="status" style="shape=partialRectangle;html=1;whiteSpace=wrap;connectable=0;fillColor=#f5f5f5;top=0;left=0;bottom=0;right=0;align=left;spacingLeft=6;overflow=hidden;labelBackgroundColor=none;fontColor=#333333;strokeColor=#030303;" parent="534" vertex="1">
                    <mxGeometry x="40" width="160" height="30" as="geometry"/>
                </mxCell>
                <mxCell id="537" value="" style="shape=partialRectangle;html=1;whiteSpace=wrap;collapsible=0;dropTarget=0;pointerEvents=0;fillColor=#f5f5f5;top=0;left=0;bottom=0;right=0;points=[[0,0.5],[1,0.5]];portConstraint=eastwest;labelBackgroundColor=none;fontColor=#333333;strokeColor=#030303;" parent="524" vertex="1">
                    <mxGeometry y="210" width="200" height="30" as="geometry"/>
                </mxCell>
                <mxCell id="538" value="" style="shape=partialRectangle;html=1;whiteSpace=wrap;connectable=0;fillColor=#f5f5f5;top=0;left=0;bottom=0;right=0;overflow=hidden;labelBackgroundColor=none;fontColor=#333333;strokeColor=#030303;" parent="537" vertex="1">
                    <mxGeometry width="40" height="30" as="geometry"/>
                </mxCell>
                <mxCell id="539" value="created_at" style="shape=partialRectangle;html=1;whiteSpace=wrap;connectable=0;fillColor=#f5f5f5;top=0;left=0;bottom=0;right=0;align=left;spacingLeft=6;overflow=hidden;labelBackgroundColor=none;fontColor=#333333;strokeColor=#030303;" parent="537" vertex="1">
                    <mxGeometry x="40" width="160" height="30" as="geometry"/>
                </mxCell>
                <mxCell id="540" value="" style="shape=partialRectangle;html=1;whiteSpace=wrap;collapsible=0;dropTarget=0;pointerEvents=0;fillColor=#f5f5f5;top=0;left=0;bottom=0;right=0;points=[[0,0.5],[1,0.5]];portConstraint=eastwest;labelBackgroundColor=none;fontColor=#333333;strokeColor=#030303;" parent="524" vertex="1">
                    <mxGeometry y="240" width="200" height="30" as="geometry"/>
                </mxCell>
                <mxCell id="541" value="" style="shape=partialRectangle;html=1;whiteSpace=wrap;connectable=0;fillColor=#f5f5f5;top=0;left=0;bottom=0;right=0;overflow=hidden;labelBackgroundColor=none;fontColor=#333333;strokeColor=#030303;" parent="540" vertex="1">
                    <mxGeometry width="40" height="30" as="geometry"/>
                </mxCell>
                <mxCell id="542" value="updated_at" style="shape=partialRectangle;html=1;whiteSpace=wrap;connectable=0;fillColor=#f5f5f5;top=0;left=0;bottom=0;right=0;align=left;spacingLeft=6;overflow=hidden;labelBackgroundColor=none;fontColor=#333333;strokeColor=#030303;" parent="540" vertex="1">
                    <mxGeometry x="40" width="160" height="30" as="geometry"/>
                </mxCell>
                <mxCell id="543" value="info_ramen_choices" style="shape=table;startSize=30;container=1;collapsible=0;childLayout=tableLayout;fixedRows=1;rowLines=0;fontStyle=1;align=center;labelBackgroundColor=none;fillColor=#f5f5f5;fontColor=#333333;strokeColor=#030303;" parent="1" vertex="1">
                    <mxGeometry x="400" y="840" width="200" height="270" as="geometry"/>
                </mxCell>
                <mxCell id="544" value="" style="shape=partialRectangle;html=1;whiteSpace=wrap;collapsible=0;dropTarget=0;pointerEvents=0;fillColor=#f5f5f5;top=0;left=0;bottom=0;right=0;points=[[0,0.5],[1,0.5]];portConstraint=eastwest;labelBackgroundColor=none;fontColor=#333333;strokeColor=#030303;" parent="543" vertex="1">
                    <mxGeometry y="30" width="200" height="30" as="geometry"/>
                </mxCell>
                <mxCell id="545" value="PK,FK" style="shape=partialRectangle;html=1;whiteSpace=wrap;connectable=0;fillColor=#f5f5f5;top=0;left=0;bottom=0;right=0;overflow=hidden;labelBackgroundColor=none;fontColor=#333333;strokeColor=#030303;" parent="544" vertex="1">
                    <mxGeometry width="40" height="30" as="geometry"/>
                </mxCell>
                <mxCell id="546" value="choice_id" style="shape=partialRectangle;html=1;whiteSpace=wrap;connectable=0;fillColor=#f5f5f5;top=0;left=0;bottom=0;right=0;align=left;spacingLeft=6;overflow=hidden;labelBackgroundColor=none;fontColor=#333333;strokeColor=#030303;" parent="544" vertex="1">
                    <mxGeometry x="40" width="160" height="30" as="geometry"/>
                </mxCell>
                <mxCell id="547" value="" style="shape=partialRectangle;html=1;whiteSpace=wrap;collapsible=0;dropTarget=0;pointerEvents=0;fillColor=#f5f5f5;top=0;left=0;bottom=1;right=0;points=[[0,0.5],[1,0.5]];portConstraint=eastwest;labelBackgroundColor=none;fontColor=#333333;strokeColor=#030303;" parent="543" vertex="1">
                    <mxGeometry y="60" width="200" height="30" as="geometry"/>
                </mxCell>
                <mxCell id="548" value="PK" style="shape=partialRectangle;html=1;whiteSpace=wrap;connectable=0;fillColor=#f5f5f5;top=0;left=0;bottom=0;right=0;overflow=hidden;labelBackgroundColor=none;fontColor=#333333;strokeColor=#030303;" parent="547" vertex="1">
                    <mxGeometry width="40" height="30" as="geometry"/>
                </mxCell>
                <mxCell id="549" value="language" style="shape=partialRectangle;html=1;whiteSpace=wrap;connectable=0;fillColor=#f5f5f5;top=0;left=0;bottom=0;right=0;align=left;spacingLeft=6;overflow=hidden;labelBackgroundColor=none;fontColor=#333333;strokeColor=#030303;" parent="547" vertex="1">
                    <mxGeometry x="40" width="160" height="30" as="geometry"/>
                </mxCell>
                <mxCell id="550" value="" style="shape=partialRectangle;html=1;whiteSpace=wrap;collapsible=0;dropTarget=0;pointerEvents=0;fillColor=#f5f5f5;top=0;left=0;bottom=0;right=0;points=[[0,0.5],[1,0.5]];portConstraint=eastwest;labelBackgroundColor=none;fontColor=#333333;strokeColor=#030303;" parent="543" vertex="1">
                    <mxGeometry y="90" width="200" height="30" as="geometry"/>
                </mxCell>
                <mxCell id="551" value="" style="shape=partialRectangle;html=1;whiteSpace=wrap;connectable=0;fillColor=#f5f5f5;top=0;left=0;bottom=0;right=0;overflow=hidden;labelBackgroundColor=none;fontColor=#333333;strokeColor=#030303;" parent="550" vertex="1">
                    <mxGeometry width="40" height="30" as="geometry"/>
                </mxCell>
                <mxCell id="552" value="name" style="shape=partialRectangle;html=1;whiteSpace=wrap;connectable=0;fillColor=#f5f5f5;top=0;left=0;bottom=0;right=0;align=left;spacingLeft=6;overflow=hidden;labelBackgroundColor=none;fontColor=#333333;strokeColor=#030303;" parent="550" vertex="1">
                    <mxGeometry x="40" width="160" height="30" as="geometry"/>
                </mxCell>
                <mxCell id="568" value="" style="shape=partialRectangle;html=1;whiteSpace=wrap;collapsible=0;dropTarget=0;pointerEvents=0;fillColor=#f5f5f5;top=0;left=0;bottom=0;right=0;points=[[0,0.5],[1,0.5]];portConstraint=eastwest;labelBackgroundColor=none;fontColor=#333333;strokeColor=#030303;" parent="543" vertex="1">
                    <mxGeometry y="120" width="200" height="30" as="geometry"/>
                </mxCell>
                <mxCell id="569" value="" style="shape=partialRectangle;html=1;whiteSpace=wrap;connectable=0;fillColor=#f5f5f5;top=0;left=0;bottom=0;right=0;overflow=hidden;labelBackgroundColor=none;fontColor=#333333;strokeColor=#030303;" parent="568" vertex="1">
                    <mxGeometry width="40" height="30" as="geometry"/>
                </mxCell>
                <mxCell id="570" value="category" style="shape=partialRectangle;html=1;whiteSpace=wrap;connectable=0;fillColor=#f5f5f5;top=0;left=0;bottom=0;right=0;align=left;spacingLeft=6;overflow=hidden;labelBackgroundColor=none;fontColor=#333333;strokeColor=#030303;" parent="568" vertex="1">
                    <mxGeometry x="40" width="160" height="30" as="geometry"/>
                </mxCell>
                <mxCell id="556" value="" style="shape=partialRectangle;html=1;whiteSpace=wrap;collapsible=0;dropTarget=0;pointerEvents=0;fillColor=#f5f5f5;top=0;left=0;bottom=0;right=0;points=[[0,0.5],[1,0.5]];portConstraint=eastwest;labelBackgroundColor=none;fontColor=#333333;strokeColor=#030303;" parent="543" vertex="1">
                    <mxGeometry y="150" width="200" height="30" as="geometry"/>
                </mxCell>
                <mxCell id="557" value="" style="shape=partialRectangle;html=1;whiteSpace=wrap;connectable=0;fillColor=#f5f5f5;top=0;left=0;bottom=0;right=0;overflow=hidden;labelBackgroundColor=none;fontColor=#333333;strokeColor=#030303;" parent="556" vertex="1">
                    <mxGeometry width="40" height="30" as="geometry"/>
                </mxCell>
                <mxCell id="558" value="description" style="shape=partialRectangle;html=1;whiteSpace=wrap;connectable=0;fillColor=#f5f5f5;top=0;left=0;bottom=0;right=0;align=left;spacingLeft=6;overflow=hidden;labelBackgroundColor=none;fontColor=#333333;strokeColor=#030303;" parent="556" vertex="1">
                    <mxGeometry x="40" width="160" height="30" as="geometry"/>
                </mxCell>
                <mxCell id="559" value="" style="shape=partialRectangle;html=1;whiteSpace=wrap;collapsible=0;dropTarget=0;pointerEvents=0;fillColor=#f5f5f5;top=0;left=0;bottom=0;right=0;points=[[0,0.5],[1,0.5]];portConstraint=eastwest;labelBackgroundColor=none;fontColor=#333333;strokeColor=#030303;" parent="543" vertex="1">
                    <mxGeometry y="180" width="200" height="30" as="geometry"/>
                </mxCell>
                <mxCell id="560" value="" style="shape=partialRectangle;html=1;whiteSpace=wrap;connectable=0;fillColor=#f5f5f5;top=0;left=0;bottom=0;right=0;overflow=hidden;labelBackgroundColor=none;fontColor=#333333;strokeColor=#030303;" parent="559" vertex="1">
                    <mxGeometry width="40" height="30" as="geometry"/>
                </mxCell>
                <mxCell id="561" value="status" style="shape=partialRectangle;html=1;whiteSpace=wrap;connectable=0;fillColor=#f5f5f5;top=0;left=0;bottom=0;right=0;align=left;spacingLeft=6;overflow=hidden;labelBackgroundColor=none;fontColor=#333333;strokeColor=#030303;" parent="559" vertex="1">
                    <mxGeometry x="40" width="160" height="30" as="geometry"/>
                </mxCell>
                <mxCell id="562" value="" style="shape=partialRectangle;html=1;whiteSpace=wrap;collapsible=0;dropTarget=0;pointerEvents=0;fillColor=#f5f5f5;top=0;left=0;bottom=0;right=0;points=[[0,0.5],[1,0.5]];portConstraint=eastwest;labelBackgroundColor=none;fontColor=#333333;strokeColor=#030303;" parent="543" vertex="1">
                    <mxGeometry y="210" width="200" height="30" as="geometry"/>
                </mxCell>
                <mxCell id="563" value="" style="shape=partialRectangle;html=1;whiteSpace=wrap;connectable=0;fillColor=#f5f5f5;top=0;left=0;bottom=0;right=0;overflow=hidden;labelBackgroundColor=none;fontColor=#333333;strokeColor=#030303;" parent="562" vertex="1">
                    <mxGeometry width="40" height="30" as="geometry"/>
                </mxCell>
                <mxCell id="564" value="created_at" style="shape=partialRectangle;html=1;whiteSpace=wrap;connectable=0;fillColor=#f5f5f5;top=0;left=0;bottom=0;right=0;align=left;spacingLeft=6;overflow=hidden;labelBackgroundColor=none;fontColor=#333333;strokeColor=#030303;" parent="562" vertex="1">
                    <mxGeometry x="40" width="160" height="30" as="geometry"/>
                </mxCell>
                <mxCell id="565" value="" style="shape=partialRectangle;html=1;whiteSpace=wrap;collapsible=0;dropTarget=0;pointerEvents=0;fillColor=#f5f5f5;top=0;left=0;bottom=0;right=0;points=[[0,0.5],[1,0.5]];portConstraint=eastwest;labelBackgroundColor=none;fontColor=#333333;strokeColor=#030303;" parent="543" vertex="1">
                    <mxGeometry y="240" width="200" height="30" as="geometry"/>
                </mxCell>
                <mxCell id="566" value="" style="shape=partialRectangle;html=1;whiteSpace=wrap;connectable=0;fillColor=#f5f5f5;top=0;left=0;bottom=0;right=0;overflow=hidden;labelBackgroundColor=none;fontColor=#333333;strokeColor=#030303;" parent="565" vertex="1">
                    <mxGeometry width="40" height="30" as="geometry"/>
                </mxCell>
                <mxCell id="567" value="updated_at" style="shape=partialRectangle;html=1;whiteSpace=wrap;connectable=0;fillColor=#f5f5f5;top=0;left=0;bottom=0;right=0;align=left;spacingLeft=6;overflow=hidden;labelBackgroundColor=none;fontColor=#333333;strokeColor=#030303;" parent="565" vertex="1">
                    <mxGeometry x="40" width="160" height="30" as="geometry"/>
                </mxCell>
            </root>
        </mxGraphModel>
    </diagram>
    <diagram id="UB_D4_3bF93_sPcmzKFP" name="Architecture">
        <mxGraphModel dx="1080" dy="575" grid="1" gridSize="10" guides="1" tooltips="1" connect="1" arrows="1" fold="1" page="1" pageScale="1" pageWidth="850" pageHeight="1100" math="0" shadow="0">
            <root>
                <mxCell id="OTNO1LHW_o7IhWaeYiP7-0"/>
                <mxCell id="OTNO1LHW_o7IhWaeYiP7-1" parent="OTNO1LHW_o7IhWaeYiP7-0"/>
                <mxCell id="YG5ANHCgk5GaPyJnMfzA-73" value="" style="group;labelBackgroundColor=none;strokeColor=#666666;fontColor=#333333;" parent="OTNO1LHW_o7IhWaeYiP7-1" connectable="0" vertex="1">
                    <mxGeometry x="30" y="80" width="1130" height="370" as="geometry"/>
                </mxCell>
                <mxCell id="YG5ANHCgk5GaPyJnMfzA-28" value="" style="group;fillColor=#f5f5f5;strokeColor=#666666;fontColor=#333333;" parent="YG5ANHCgk5GaPyJnMfzA-73" connectable="0" vertex="1">
                    <mxGeometry x="190" width="300" height="370" as="geometry"/>
                </mxCell>
                <mxCell id="DYBEpCh68kAfyILHhq28-2" value="&amp;lt;&amp;lt;Subsystem&amp;gt;&amp;gt; Frontend" style="verticalAlign=top;align=left;shape=cube;size=10;direction=south;fontStyle=0;html=1;boundedLbl=1;spacingLeft=5;fillColor=#f5f5f5;strokeColor=#666666;fontColor=#333333;" parent="YG5ANHCgk5GaPyJnMfzA-28" vertex="1">
                    <mxGeometry x="10" width="290" height="370" as="geometry"/>
                </mxCell>
                <mxCell id="DYBEpCh68kAfyILHhq28-22" style="edgeStyle=orthogonalEdgeStyle;rounded=0;orthogonalLoop=1;jettySize=auto;html=1;startArrow=none;startFill=0;endArrow=halfCircle;endFill=0;fillColor=#f5f5f5;strokeColor=#666666;" parent="YG5ANHCgk5GaPyJnMfzA-28" source="ZPm09U0hqpPt0B_QvkCa-0" edge="1">
                    <mxGeometry relative="1" as="geometry">
                        <mxPoint x="260" y="130" as="targetPoint"/>
                    </mxGeometry>
                </mxCell>
                <mxCell id="DYBEpCh68kAfyILHhq28-23" style="edgeStyle=orthogonalEdgeStyle;rounded=0;orthogonalLoop=1;jettySize=auto;html=1;startArrow=none;startFill=0;endArrow=halfCircle;endFill=0;exitX=1;exitY=0.75;exitDx=0;exitDy=0;fillColor=#f5f5f5;strokeColor=#666666;" parent="YG5ANHCgk5GaPyJnMfzA-28" source="DYBEpCh68kAfyILHhq28-1" edge="1">
                    <mxGeometry relative="1" as="geometry">
                        <mxPoint x="260" y="240" as="targetPoint"/>
                    </mxGeometry>
                </mxCell>
                <mxCell id="DYBEpCh68kAfyILHhq28-24" style="edgeStyle=orthogonalEdgeStyle;rounded=0;orthogonalLoop=1;jettySize=auto;html=1;startArrow=none;startFill=0;endArrow=oval;endFill=1;exitX=1;exitY=0.25;exitDx=0;exitDy=0;fillColor=#f5f5f5;strokeColor=#666666;" parent="YG5ANHCgk5GaPyJnMfzA-28" source="DYBEpCh68kAfyILHhq28-0" edge="1">
                    <mxGeometry relative="1" as="geometry">
                        <mxPoint x="260" y="240" as="targetPoint"/>
                    </mxGeometry>
                </mxCell>
                <mxCell id="DYBEpCh68kAfyILHhq28-20" value="" style="edgeStyle=orthogonalEdgeStyle;rounded=0;orthogonalLoop=1;jettySize=auto;html=1;startArrow=none;startFill=0;endArrow=oval;endFill=1;exitX=0.062;exitY=0.501;exitDx=0;exitDy=0;exitPerimeter=0;fillColor=#f5f5f5;strokeColor=#666666;" parent="YG5ANHCgk5GaPyJnMfzA-28" source="ZPm09U0hqpPt0B_QvkCa-0" edge="1">
                    <mxGeometry as="geometry">
                        <mxPoint x="50" y="85" as="targetPoint"/>
                    </mxGeometry>
                </mxCell>
                <mxCell id="DYBEpCh68kAfyILHhq28-21" style="edgeStyle=orthogonalEdgeStyle;rounded=0;orthogonalLoop=1;jettySize=auto;html=1;entryX=1;entryY=0.25;entryDx=0;entryDy=0;startArrow=oval;startFill=1;endArrow=none;endFill=0;fillColor=#f5f5f5;strokeColor=#666666;" parent="YG5ANHCgk5GaPyJnMfzA-28" target="DYBEpCh68kAfyILHhq28-1" edge="1">
                    <mxGeometry as="geometry">
                        <mxPoint x="260" y="130" as="sourcePoint"/>
                        <Array as="points">
                            <mxPoint x="260" y="173"/>
                            <mxPoint x="240" y="173"/>
                        </Array>
                    </mxGeometry>
                </mxCell>
                <mxCell id="ZPm09U0hqpPt0B_QvkCa-0" value="Web Interface" style="shape=module;align=left;spacingLeft=20;align=center;verticalAlign=middle;fillColor=#f5f5f5;strokeColor=#666666;fontColor=#333333;" parent="YG5ANHCgk5GaPyJnMfzA-28" vertex="1">
                    <mxGeometry x="70" y="60" width="170" height="50" as="geometry"/>
                </mxCell>
                <mxCell id="DYBEpCh68kAfyILHhq28-0" value="API Service" style="shape=module;align=left;spacingLeft=20;align=center;verticalAlign=middle;fillColor=#f5f5f5;strokeColor=#666666;fontColor=#333333;" parent="YG5ANHCgk5GaPyJnMfzA-28" vertex="1">
                    <mxGeometry x="70" y="260" width="170" height="50" as="geometry"/>
                </mxCell>
                <mxCell id="DYBEpCh68kAfyILHhq28-1" value="Store &amp; State Manager" style="shape=module;align=left;spacingLeft=20;align=center;verticalAlign=middle;fillColor=#f5f5f5;strokeColor=#666666;fontColor=#333333;" parent="YG5ANHCgk5GaPyJnMfzA-28" vertex="1">
                    <mxGeometry x="70" y="160" width="170" height="50" as="geometry"/>
                </mxCell>
                <mxCell id="DYBEpCh68kAfyILHhq28-19" style="edgeStyle=orthogonalEdgeStyle;rounded=0;orthogonalLoop=1;jettySize=auto;html=1;startArrow=none;startFill=0;endArrow=halfCircle;endFill=0;fillColor=#f5f5f5;strokeColor=#666666;" parent="YG5ANHCgk5GaPyJnMfzA-28" source="DYBEpCh68kAfyILHhq28-5" edge="1">
                    <mxGeometry as="geometry">
                        <mxPoint x="50" y="85" as="targetPoint"/>
                    </mxGeometry>
                </mxCell>
                <mxCell id="DYBEpCh68kAfyILHhq28-5" value="&lt;span style=&quot;color: rgba(0 , 0 , 0 , 0) ; font-family: monospace ; font-size: 0px&quot;&gt;%3CmxGraphModel%3E%3Croot%3E%3CmxCell%20id%3D%220%22%2F%3E%3CmxCell%20id%3D%221%22%20parent%3D%220%22%2F%3E%3CmxCell%20id%3D%222%22%20value%3D%22%26amp%3Blt%3B%26amp%3Blt%3BSubsystem%26amp%3Bgt%3B%26amp%3Bgt%3B%20Backend%22%20style%3D%22verticalAlign%3Dtop%3Balign%3Dleft%3Bshape%3Dcube%3Bsize%3D10%3Bdirection%3Dsouth%3BfontStyle%3D0%3Bhtml%3D1%3BboundedLbl%3D1%3BspacingLeft%3D5%3B%22%20vertex%3D%221%22%20parent%3D%221%22%3E%3CmxGeometry%20x%3D%22490%22%20y%3D%2280%22%20width%3D%22290%22%20height%3D%22370%22%20as%3D%22geometry%22%2F%3E%3C%2FmxCell%3E%3C%2Froot%3E%3C%2FmxGraphModel%3E&lt;/span&gt;" style="rounded=0;whiteSpace=wrap;html=1;verticalAlign=middle;fillColor=#f5f5f5;strokeColor=#666666;fontColor=#333333;" parent="YG5ANHCgk5GaPyJnMfzA-28" vertex="1">
                    <mxGeometry y="75" width="20" height="20" as="geometry"/>
                </mxCell>
                <mxCell id="DYBEpCh68kAfyILHhq28-18" style="edgeStyle=orthogonalEdgeStyle;rounded=0;orthogonalLoop=1;jettySize=auto;html=1;entryX=0;entryY=0.5;entryDx=0;entryDy=0;startArrow=none;startFill=0;endArrow=none;endFill=0;fillColor=#f5f5f5;strokeColor=#666666;" parent="YG5ANHCgk5GaPyJnMfzA-73" source="za6tQa-6TCmfMkPj0cJO-4" target="DYBEpCh68kAfyILHhq28-5" edge="1">
                    <mxGeometry relative="1" as="geometry"/>
                </mxCell>
                <mxCell id="za6tQa-6TCmfMkPj0cJO-4" value="QR Code Scanner" style="shape=module;align=left;spacingLeft=20;align=center;verticalAlign=middle;fillColor=#f5f5f5;strokeColor=#666666;fontColor=#333333;" parent="YG5ANHCgk5GaPyJnMfzA-73" vertex="1">
                    <mxGeometry y="60" width="170" height="50" as="geometry"/>
                </mxCell>
                <mxCell id="DYBEpCh68kAfyILHhq28-26" style="edgeStyle=orthogonalEdgeStyle;rounded=0;orthogonalLoop=1;jettySize=auto;html=1;entryX=0;entryY=0.5;entryDx=0;entryDy=0;startArrow=none;startFill=0;endArrow=none;endFill=0;exitX=1;exitY=0.75;exitDx=0;exitDy=0;fillColor=#f5f5f5;strokeColor=#666666;" parent="YG5ANHCgk5GaPyJnMfzA-73" source="DYBEpCh68kAfyILHhq28-0" target="DYBEpCh68kAfyILHhq28-10" edge="1">
                    <mxGeometry relative="1" as="geometry">
                        <Array as="points">
                            <mxPoint x="530" y="297"/>
                            <mxPoint x="530" y="185"/>
                        </Array>
                    </mxGeometry>
                </mxCell>
                <mxCell id="YG5ANHCgk5GaPyJnMfzA-72" value="" style="group;fillColor=#f5f5f5;strokeColor=#666666;fontColor=#333333;" parent="YG5ANHCgk5GaPyJnMfzA-73" connectable="0" vertex="1">
                    <mxGeometry x="560" width="570" height="370" as="geometry"/>
                </mxCell>
                <mxCell id="YG5ANHCgk5GaPyJnMfzA-43" value="" style="group;fillColor=#f5f5f5;strokeColor=#666666;fontColor=#333333;" parent="YG5ANHCgk5GaPyJnMfzA-72" connectable="0" vertex="1">
                    <mxGeometry width="570" height="370" as="geometry"/>
                </mxCell>
                <mxCell id="za6tQa-6TCmfMkPj0cJO-1" value="&amp;lt;&amp;lt;Subsystem&amp;gt;&amp;gt; Backend" style="verticalAlign=top;align=left;shape=cube;size=10;direction=south;fontStyle=0;html=1;boundedLbl=1;spacingLeft=5;fillColor=#f5f5f5;strokeColor=#666666;fontColor=#333333;" parent="YG5ANHCgk5GaPyJnMfzA-43" vertex="1">
                    <mxGeometry x="10" width="560" height="370" as="geometry"/>
                </mxCell>
                <mxCell id="DYBEpCh68kAfyILHhq28-10" value="&lt;span style=&quot;color: rgba(0 , 0 , 0 , 0) ; font-family: monospace ; font-size: 0px&quot;&gt;%3CmxGraphModel%3E%3Croot%3E%3CmxCell%20id%3D%220%22%2F%3E%3CmxCell%20id%3D%221%22%20parent%3D%220%22%2F%3E%3CmxCell%20id%3D%222%22%20value%3D%22%26amp%3Blt%3B%26amp%3Blt%3BSubsystem%26amp%3Bgt%3B%26amp%3Bgt%3B%20Backend%22%20style%3D%22verticalAlign%3Dtop%3Balign%3Dleft%3Bshape%3Dcube%3Bsize%3D10%3Bdirection%3Dsouth%3BfontStyle%3D0%3Bhtml%3D1%3BboundedLbl%3D1%3BspacingLeft%3D5%3B%22%20vertex%3D%221%22%20parent%3D%221%22%3E%3CmxGeometry%20x%3D%22490%22%20y%3D%2280%22%20width%3D%22290%22%20height%3D%22370%22%20as%3D%22geometry%22%2F%3E%3C%2FmxCell%3E%3C%2Froot%3E%3C%2FmxGraphModel%3E&lt;/span&gt;" style="rounded=0;whiteSpace=wrap;html=1;verticalAlign=middle;fillColor=#f5f5f5;strokeColor=#666666;fontColor=#333333;" parent="YG5ANHCgk5GaPyJnMfzA-43" vertex="1">
                    <mxGeometry y="175" width="20" height="20" as="geometry"/>
                </mxCell>
                <mxCell id="YG5ANHCgk5GaPyJnMfzA-55" value="" style="group;fillColor=#f5f5f5;strokeColor=#666666;fontColor=#333333;" parent="YG5ANHCgk5GaPyJnMfzA-43" connectable="0" vertex="1">
                    <mxGeometry x="40" y="130" width="230" height="190" as="geometry"/>
                </mxCell>
                <mxCell id="YG5ANHCgk5GaPyJnMfzA-44" value="" style="group;fillColor=#f5f5f5;strokeColor=#666666;fontColor=#333333;" parent="YG5ANHCgk5GaPyJnMfzA-55" connectable="0" vertex="1">
                    <mxGeometry width="230" height="190" as="geometry"/>
                </mxCell>
                <mxCell id="YG5ANHCgk5GaPyJnMfzA-38" value="&lt;span style=&quot;color: rgba(0 , 0 , 0 , 0) ; font-family: monospace ; font-size: 0px&quot;&gt;%3CmxGraphModel%3E%3Croot%3E%3CmxCell%20id%3D%220%22%2F%3E%3CmxCell%20id%3D%221%22%20parent%3D%220%22%2F%3E%3CmxCell%20id%3D%222%22%20value%3D%22%26amp%3Blt%3B%26amp%3Blt%3BSubsystem%26amp%3Bgt%3B%26amp%3Bgt%3B%20Backend%22%20style%3D%22verticalAlign%3Dtop%3Balign%3Dleft%3Bshape%3Dcube%3Bsize%3D10%3Bdirection%3Dsouth%3BfontStyle%3D0%3Bhtml%3D1%3BboundedLbl%3D1%3BspacingLeft%3D5%3B%22%20vertex%3D%221%22%20parent%3D%221%22%3E%3CmxGeometry%20x%3D%22490%22%20y%3D%2280%22%20width%3D%22290%22%20height%3D%22370%22%20as%3D%22geometry%22%2F%3E%3C%2FmxCell%3E%3C%2Froot%3E%3C%2FmxGraphModel%3E&lt;/span&gt;" style="rounded=0;whiteSpace=wrap;html=1;verticalAlign=middle;fillColor=#f5f5f5;strokeColor=#666666;fontColor=#333333;" parent="YG5ANHCgk5GaPyJnMfzA-44" vertex="1">
                    <mxGeometry x="10" width="220" height="190" as="geometry"/>
                </mxCell>
                <mxCell id="YG5ANHCgk5GaPyJnMfzA-41" value="&lt;span style=&quot;color: rgba(0 , 0 , 0 , 0) ; font-family: monospace ; font-size: 0px&quot;&gt;%3CmxGraphModel%3E%3Croot%3E%3CmxCell%20id%3D%220%22%2F%3E%3CmxCell%20id%3D%221%22%20parent%3D%220%22%2F%3E%3CmxCell%20id%3D%222%22%20value%3D%22%26amp%3Blt%3B%26amp%3Blt%3BSubsystem%26amp%3Bgt%3B%26amp%3Bgt%3B%20Backend%22%20style%3D%22verticalAlign%3Dtop%3Balign%3Dleft%3Bshape%3Dcube%3Bsize%3D10%3Bdirection%3Dsouth%3BfontStyle%3D0%3Bhtml%3D1%3BboundedLbl%3D1%3BspacingLeft%3D5%3B%22%20vertex%3D%221%22%20parent%3D%221%22%3E%3CmxGeometry%20x%3D%22490%22%20y%3D%2280%22%20width%3D%22290%22%20height%3D%22370%22%20as%3D%22geometry%22%2F%3E%3C%2FmxCell%3E%3C%2Froot%3E%3C%2FmxGraphModel%3E&lt;/span&gt;" style="rounded=0;whiteSpace=wrap;html=1;verticalAlign=middle;fillColor=#f5f5f5;strokeColor=#666666;fontColor=#333333;" parent="YG5ANHCgk5GaPyJnMfzA-44" vertex="1">
                    <mxGeometry y="45" width="20" height="20" as="geometry"/>
                </mxCell>
                <mxCell id="YG5ANHCgk5GaPyJnMfzA-53" style="edgeStyle=orthogonalEdgeStyle;rounded=0;orthogonalLoop=1;jettySize=auto;html=1;startArrow=none;startFill=0;endArrow=halfCircle;endFill=0;exitX=1;exitY=0.75;exitDx=0;exitDy=0;fillColor=#f5f5f5;strokeColor=#666666;" parent="YG5ANHCgk5GaPyJnMfzA-44" source="VJVpam2Pr7qU4LE_sraX-4" edge="1">
                    <mxGeometry relative="1" as="geometry">
                        <mxPoint x="210" y="100" as="targetPoint"/>
                    </mxGeometry>
                </mxCell>
                <mxCell id="VJVpam2Pr7qU4LE_sraX-4" value="Router" style="shape=module;align=left;spacingLeft=20;align=center;verticalAlign=middle;fillColor=#f5f5f5;strokeColor=#666666;fontColor=#333333;" parent="YG5ANHCgk5GaPyJnMfzA-44" vertex="1">
                    <mxGeometry x="70" y="30" width="120" height="50" as="geometry"/>
                </mxCell>
                <mxCell id="YG5ANHCgk5GaPyJnMfzA-36" value="Middleware" style="shape=module;align=left;spacingLeft=20;align=center;verticalAlign=middle;fillColor=#f5f5f5;strokeColor=#666666;fontColor=#333333;" parent="YG5ANHCgk5GaPyJnMfzA-44" vertex="1">
                    <mxGeometry x="70" y="110" width="120" height="50" as="geometry"/>
                </mxCell>
                <mxCell id="YG5ANHCgk5GaPyJnMfzA-48" style="edgeStyle=orthogonalEdgeStyle;rounded=0;orthogonalLoop=1;jettySize=auto;html=1;startArrow=none;startFill=0;endArrow=oval;endFill=1;exitX=0.085;exitY=0.502;exitDx=0;exitDy=0;exitPerimeter=0;fillColor=#f5f5f5;strokeColor=#666666;" parent="YG5ANHCgk5GaPyJnMfzA-55" source="VJVpam2Pr7qU4LE_sraX-4" edge="1">
                    <mxGeometry relative="1" as="geometry">
                        <mxPoint x="50" y="55" as="targetPoint"/>
                    </mxGeometry>
                </mxCell>
                <mxCell id="YG5ANHCgk5GaPyJnMfzA-51" style="edgeStyle=orthogonalEdgeStyle;rounded=0;orthogonalLoop=1;jettySize=auto;html=1;startArrow=none;startFill=0;endArrow=halfCircle;endFill=0;fillColor=#f5f5f5;strokeColor=#666666;" parent="YG5ANHCgk5GaPyJnMfzA-55" source="YG5ANHCgk5GaPyJnMfzA-41" edge="1">
                    <mxGeometry relative="1" as="geometry">
                        <mxPoint x="50" y="55" as="targetPoint"/>
                    </mxGeometry>
                </mxCell>
                <mxCell id="YG5ANHCgk5GaPyJnMfzA-54" style="edgeStyle=orthogonalEdgeStyle;rounded=0;orthogonalLoop=1;jettySize=auto;html=1;startArrow=none;startFill=0;endArrow=oval;endFill=1;fillColor=#f5f5f5;strokeColor=#666666;" parent="YG5ANHCgk5GaPyJnMfzA-55" source="YG5ANHCgk5GaPyJnMfzA-36" edge="1">
                    <mxGeometry relative="1" as="geometry">
                        <mxPoint x="210" y="100" as="targetPoint"/>
                    </mxGeometry>
                </mxCell>
                <mxCell id="YG5ANHCgk5GaPyJnMfzA-70" style="edgeStyle=orthogonalEdgeStyle;rounded=0;orthogonalLoop=1;jettySize=auto;html=1;entryX=0;entryY=0.5;entryDx=0;entryDy=0;startArrow=none;startFill=0;endArrow=none;endFill=0;exitX=1;exitY=0.25;exitDx=0;exitDy=0;fillColor=#f5f5f5;strokeColor=#666666;" parent="YG5ANHCgk5GaPyJnMfzA-43" source="VJVpam2Pr7qU4LE_sraX-4" target="YG5ANHCgk5GaPyJnMfzA-60" edge="1">
                    <mxGeometry relative="1" as="geometry">
                        <Array as="points">
                            <mxPoint x="290" y="173"/>
                            <mxPoint x="290" y="95"/>
                        </Array>
                    </mxGeometry>
                </mxCell>
                <mxCell id="YG5ANHCgk5GaPyJnMfzA-58" value="" style="group;fillColor=#f5f5f5;strokeColor=#666666;fontColor=#333333;" parent="YG5ANHCgk5GaPyJnMfzA-43" connectable="0" vertex="1">
                    <mxGeometry x="310" y="40" width="230" height="300" as="geometry"/>
                </mxCell>
                <mxCell id="YG5ANHCgk5GaPyJnMfzA-59" value="&lt;span style=&quot;color: rgba(0 , 0 , 0 , 0) ; font-family: monospace ; font-size: 0px&quot;&gt;%3CmxGraphModel%3E%3Croot%3E%3CmxCell%20id%3D%220%22%2F%3E%3CmxCell%20id%3D%221%22%20parent%3D%220%22%2F%3E%3CmxCell%20id%3D%222%22%20value%3D%22%26amp%3Blt%3B%26amp%3Blt%3BSubsystem%26amp%3Bgt%3B%26amp%3Bgt%3B%20Backend%22%20style%3D%22verticalAlign%3Dtop%3Balign%3Dleft%3Bshape%3Dcube%3Bsize%3D10%3Bdirection%3Dsouth%3BfontStyle%3D0%3Bhtml%3D1%3BboundedLbl%3D1%3BspacingLeft%3D5%3B%22%20vertex%3D%221%22%20parent%3D%221%22%3E%3CmxGeometry%20x%3D%22490%22%20y%3D%2280%22%20width%3D%22290%22%20height%3D%22370%22%20as%3D%22geometry%22%2F%3E%3C%2FmxCell%3E%3C%2Froot%3E%3C%2FmxGraphModel%3E&lt;/span&gt;" style="rounded=0;whiteSpace=wrap;html=1;verticalAlign=middle;fillColor=#f5f5f5;strokeColor=#666666;fontColor=#333333;" parent="YG5ANHCgk5GaPyJnMfzA-58" vertex="1">
                    <mxGeometry x="10" width="220" height="280" as="geometry"/>
                </mxCell>
                <mxCell id="YG5ANHCgk5GaPyJnMfzA-60" value="&lt;span style=&quot;color: rgba(0 , 0 , 0 , 0) ; font-family: monospace ; font-size: 0px&quot;&gt;%3CmxGraphModel%3E%3Croot%3E%3CmxCell%20id%3D%220%22%2F%3E%3CmxCell%20id%3D%221%22%20parent%3D%220%22%2F%3E%3CmxCell%20id%3D%222%22%20value%3D%22%26amp%3Blt%3B%26amp%3Blt%3BSubsystem%26amp%3Bgt%3B%26amp%3Bgt%3B%20Backend%22%20style%3D%22verticalAlign%3Dtop%3Balign%3Dleft%3Bshape%3Dcube%3Bsize%3D10%3Bdirection%3Dsouth%3BfontStyle%3D0%3Bhtml%3D1%3BboundedLbl%3D1%3BspacingLeft%3D5%3B%22%20vertex%3D%221%22%20parent%3D%221%22%3E%3CmxGeometry%20x%3D%22490%22%20y%3D%2280%22%20width%3D%22290%22%20height%3D%22370%22%20as%3D%22geometry%22%2F%3E%3C%2FmxCell%3E%3C%2Froot%3E%3C%2FmxGraphModel%3E&lt;/span&gt;" style="rounded=0;whiteSpace=wrap;html=1;verticalAlign=middle;fillColor=#f5f5f5;strokeColor=#666666;fontColor=#333333;" parent="YG5ANHCgk5GaPyJnMfzA-58" vertex="1">
                    <mxGeometry y="45" width="20" height="20" as="geometry"/>
                </mxCell>
                <mxCell id="YG5ANHCgk5GaPyJnMfzA-61" style="edgeStyle=orthogonalEdgeStyle;rounded=0;orthogonalLoop=1;jettySize=auto;html=1;startArrow=none;startFill=0;endArrow=halfCircle;endFill=0;exitX=1;exitY=0.5;exitDx=0;exitDy=0;fillColor=#f5f5f5;strokeColor=#666666;" parent="YG5ANHCgk5GaPyJnMfzA-58" source="YG5ANHCgk5GaPyJnMfzA-62" edge="1">
                    <mxGeometry relative="1" as="geometry">
                        <mxPoint x="210" y="100" as="targetPoint"/>
                    </mxGeometry>
                </mxCell>
                <mxCell id="YG5ANHCgk5GaPyJnMfzA-62" value="Controller" style="shape=module;align=left;spacingLeft=20;align=center;verticalAlign=middle;fillColor=#f5f5f5;strokeColor=#666666;fontColor=#333333;" parent="YG5ANHCgk5GaPyJnMfzA-58" vertex="1">
                    <mxGeometry x="70" y="30" width="120" height="50" as="geometry"/>
                </mxCell>
                <mxCell id="YG5ANHCgk5GaPyJnMfzA-63" value="Model" style="shape=module;align=left;spacingLeft=20;align=center;verticalAlign=middle;fillColor=#f5f5f5;strokeColor=#666666;fontColor=#333333;" parent="YG5ANHCgk5GaPyJnMfzA-58" vertex="1">
                    <mxGeometry x="70" y="110" width="120" height="50" as="geometry"/>
                </mxCell>
                <mxCell id="YG5ANHCgk5GaPyJnMfzA-67" style="edgeStyle=orthogonalEdgeStyle;rounded=0;orthogonalLoop=1;jettySize=auto;html=1;startArrow=none;startFill=0;endArrow=halfCircle;endFill=0;exitX=1;exitY=0.75;exitDx=0;exitDy=0;fillColor=#f5f5f5;strokeColor=#666666;" parent="YG5ANHCgk5GaPyJnMfzA-58" source="YG5ANHCgk5GaPyJnMfzA-63" edge="1">
                    <mxGeometry relative="1" as="geometry">
                        <mxPoint x="210" y="180" as="targetPoint"/>
                        <mxPoint x="190" y="150" as="sourcePoint"/>
                    </mxGeometry>
                </mxCell>
                <mxCell id="YG5ANHCgk5GaPyJnMfzA-68" value="Data Store" style="shape=module;align=left;spacingLeft=20;align=center;verticalAlign=middle;fillColor=#f5f5f5;strokeColor=#666666;fontColor=#333333;" parent="YG5ANHCgk5GaPyJnMfzA-58" vertex="1">
                    <mxGeometry x="70" y="192.5" width="120" height="50" as="geometry"/>
                </mxCell>
                <mxCell id="YG5ANHCgk5GaPyJnMfzA-64" style="edgeStyle=orthogonalEdgeStyle;rounded=0;orthogonalLoop=1;jettySize=auto;html=1;startArrow=none;startFill=0;endArrow=oval;endFill=1;exitX=0.085;exitY=0.502;exitDx=0;exitDy=0;exitPerimeter=0;fillColor=#f5f5f5;strokeColor=#666666;" parent="YG5ANHCgk5GaPyJnMfzA-43" source="YG5ANHCgk5GaPyJnMfzA-62" edge="1">
                    <mxGeometry x="900" y="120" as="geometry">
                        <mxPoint x="360" y="95" as="targetPoint"/>
                    </mxGeometry>
                </mxCell>
                <mxCell id="YG5ANHCgk5GaPyJnMfzA-65" style="edgeStyle=orthogonalEdgeStyle;rounded=0;orthogonalLoop=1;jettySize=auto;html=1;startArrow=none;startFill=0;endArrow=halfCircle;endFill=0;fillColor=#f5f5f5;strokeColor=#666666;" parent="YG5ANHCgk5GaPyJnMfzA-43" source="YG5ANHCgk5GaPyJnMfzA-60" edge="1">
                    <mxGeometry x="900" y="120" as="geometry">
                        <mxPoint x="360" y="95" as="targetPoint"/>
                    </mxGeometry>
                </mxCell>
                <mxCell id="YG5ANHCgk5GaPyJnMfzA-66" style="edgeStyle=orthogonalEdgeStyle;rounded=0;orthogonalLoop=1;jettySize=auto;html=1;startArrow=none;startFill=0;endArrow=oval;endFill=1;exitX=1;exitY=0.25;exitDx=0;exitDy=0;fillColor=#f5f5f5;strokeColor=#666666;" parent="YG5ANHCgk5GaPyJnMfzA-43" source="YG5ANHCgk5GaPyJnMfzA-63" edge="1">
                    <mxGeometry x="900" y="120" as="geometry">
                        <mxPoint x="520" y="140" as="targetPoint"/>
                    </mxGeometry>
                </mxCell>
                <mxCell id="YG5ANHCgk5GaPyJnMfzA-56" style="edgeStyle=orthogonalEdgeStyle;rounded=0;orthogonalLoop=1;jettySize=auto;html=1;startArrow=none;startFill=0;endArrow=none;endFill=0;fillColor=#f5f5f5;strokeColor=#666666;" parent="YG5ANHCgk5GaPyJnMfzA-72" source="DYBEpCh68kAfyILHhq28-10" edge="1">
                    <mxGeometry relative="1" as="geometry">
                        <mxPoint x="40" y="185" as="targetPoint"/>
                    </mxGeometry>
                </mxCell>
                <mxCell id="YG5ANHCgk5GaPyJnMfzA-69" style="edgeStyle=orthogonalEdgeStyle;rounded=0;orthogonalLoop=1;jettySize=auto;html=1;startArrow=none;startFill=0;endArrow=oval;endFill=1;fillColor=#f5f5f5;strokeColor=#666666;" parent="YG5ANHCgk5GaPyJnMfzA-72" source="YG5ANHCgk5GaPyJnMfzA-68" edge="1">
                    <mxGeometry relative="1" as="geometry">
                        <mxPoint x="520" y="220" as="targetPoint"/>
                    </mxGeometry>
                </mxCell>
            </root>
        </mxGraphModel>
    </diagram>
</mxfile>